<?xml version="1.0" encoding="UTF-8" standalone="no"?>
<!DOCTYPE svg PUBLIC "-//W3C//DTD SVG 1.1//EN"
 "http://www.w3.org/Graphics/SVG/1.1/DTD/svg11.dtd">
<!-- Generated by graphviz version 16.1.0 (20260904.0139)
 -->
<!-- Title: erd Pages: 1 -->
<!-- the STORES table and its direct neighbours, as the co module maps them. Generated by the erd skill; do not edit by hand. -->
<svg width="489pt" height="654pt"
 viewBox="0.00 0.00 489.00 654.00" xmlns="http://www.w3.org/2000/svg" xmlns:xlink="http://www.w3.org/1999/xlink">
<g id="graph0" class="graph" transform="scale(1 1) rotate(0) translate(21.6 632.85)">
<title>erd</title>
<polygon fill="white" stroke="none" points="-21.6,21.6 -21.6,-632.85 467.35,-632.85 467.35,21.6 -21.6,21.6"/>
<!-- STORES -->
<g id="node1" class="node">
<title>STORES</title>
<polygon fill="#ffffff" stroke="none" points="177.75,-255.75 177.75,-490.25 376,-490.25 376,-255.75 177.75,-255.75"/>
<polygon fill="none" stroke="#b8c2cc" points="177.75,-255.75 177.75,-490.25 376,-490.25 376,-255.75 177.75,-255.75"/>
<polygon fill="#8c4a3f" stroke="none" points="178.75,-468.5 178.75,-489.25 375,-489.25 375,-468.5 178.75,-468.5"/>
<text xml:space="preserve" text-anchor="start" x="251.75" y="-474.85" font-family="Helvetica,Arial,sans-serif" font-weight="bold" font-size="12.00" fill="white">STORES</text>
<text xml:space="preserve" text-anchor="start" x="182.75" y="-456" font-family="Helvetica,Arial,sans-serif" font-weight="bold" font-size="10.00" fill="#1f2933">store_id</text>
<text xml:space="preserve" text-anchor="start" x="269.5" y="-456.25" font-family="Helvetica,Arial,sans-serif" font-size="10.00" fill="#5b6770">integer</text>
<text xml:space="preserve" text-anchor="start" x="336.75" y="-456.2" font-family="Helvetica,Arial,sans-serif" font-weight="bold" font-size="9.00" fill="#8c4a3f">PK</text>
<text xml:space="preserve" text-anchor="start" x="182.75" y="-437" font-family="Helvetica,Arial,sans-serif" font-size="10.00" fill="#1f2933">store_name</text>
<text xml:space="preserve" text-anchor="start" x="269.5" y="-437" font-family="Helvetica,Arial,sans-serif" font-size="10.00" fill="#5b6770">varchar2(255)</text>
<text xml:space="preserve" text-anchor="start" x="357.5" y="-437" font-family="Helvetica,Arial,sans-serif" font-size="9.00" fill="#8b949e">NN</text>
<text xml:space="preserve" text-anchor="start" x="182.75" y="-417.75" font-family="Helvetica,Arial,sans-serif" font-size="10.00" fill="#1f2933">web_address</text>
<text xml:space="preserve" text-anchor="start" x="269.5" y="-417.75" font-family="Helvetica,Arial,sans-serif" font-size="10.00" fill="#5b6770">varchar2(100)</text>
<text xml:space="preserve" text-anchor="start" x="182.75" y="-398.5" font-family="Helvetica,Arial,sans-serif" font-size="10.00" fill="#1f2933">physical_address</text>
<text xml:space="preserve" text-anchor="start" x="269.5" y="-398.5" font-family="Helvetica,Arial,sans-serif" font-size="10.00" fill="#5b6770">varchar2(512)</text>
<text xml:space="preserve" text-anchor="start" x="182.75" y="-379.25" font-family="Helvetica,Arial,sans-serif" font-size="10.00" fill="#1f2933">latitude</text>
<text xml:space="preserve" text-anchor="start" x="269.5" y="-379.25" font-family="Helvetica,Arial,sans-serif" font-size="10.00" fill="#5b6770">number(9,6)</text>
<text xml:space="preserve" text-anchor="start" x="182.75" y="-360" font-family="Helvetica,Arial,sans-serif" font-size="10.00" fill="#1f2933">longitude</text>
<text xml:space="preserve" text-anchor="start" x="269.5" y="-360" font-family="Helvetica,Arial,sans-serif" font-size="10.00" fill="#5b6770">number(9,6)</text>
<text xml:space="preserve" text-anchor="start" x="182.75" y="-340.75" font-family="Helvetica,Arial,sans-serif" font-size="10.00" fill="#1f2933">logo</text>
<text xml:space="preserve" text-anchor="start" x="269.5" y="-340.75" font-family="Helvetica,Arial,sans-serif" font-size="10.00" fill="#5b6770">blob</text>
<text xml:space="preserve" text-anchor="start" x="182.75" y="-321.5" font-family="Helvetica,Arial,sans-serif" font-size="10.00" fill="#1f2933">logo_mime_type</text>
<text xml:space="preserve" text-anchor="start" x="269.5" y="-321.5" font-family="Helvetica,Arial,sans-serif" font-size="10.00" fill="#5b6770">varchar2(512)</text>
<text xml:space="preserve" text-anchor="start" x="182.75" y="-302.25" font-family="Helvetica,Arial,sans-serif" font-size="10.00" fill="#1f2933">logo_filename</text>
<text xml:space="preserve" text-anchor="start" x="269.5" y="-302.25" font-family="Helvetica,Arial,sans-serif" font-size="10.00" fill="#5b6770">varchar2(512)</text>
<text xml:space="preserve" text-anchor="start" x="182.75" y="-283" font-family="Helvetica,Arial,sans-serif" font-size="10.00" fill="#1f2933">logo_charset</text>
<text xml:space="preserve" text-anchor="start" x="269.5" y="-283" font-family="Helvetica,Arial,sans-serif" font-size="10.00" fill="#5b6770">varchar2(512)</text>
<text xml:space="preserve" text-anchor="start" x="182.75" y="-263.75" font-family="Helvetica,Arial,sans-serif" font-size="10.00" fill="#1f2933">logo_last_updated</text>
<text xml:space="preserve" text-anchor="start" x="269.5" y="-263.75" font-family="Helvetica,Arial,sans-serif" font-size="10.00" fill="#5b6770">date</text>
</g>
<!-- STORE_ORDERS -->
<g id="node5" class="node">
<title>STORE_ORDERS</title>
<path fill="#ffffff" stroke="none" d="M191.25,0C191.25,0 362.5,0 362.5,0 368.5,0 374.5,-6 374.5,-12 374.5,-12 374.5,-164.75 374.5,-164.75 374.5,-170.75 368.5,-176.75 362.5,-176.75 362.5,-176.75 191.25,-176.75 191.25,-176.75 185.25,-176.75 179.25,-170.75 179.25,-164.75 179.25,-164.75 179.25,-12 179.25,-12 179.25,-6 185.25,0 191.25,0"/>
<path fill="none" stroke="#d6dce2" d="M191.25,0C191.25,0 362.5,0 362.5,0 368.5,0 374.5,-6 374.5,-12 374.5,-12 374.5,-164.75 374.5,-164.75 374.5,-170.75 368.5,-176.75 362.5,-176.75 362.5,-176.75 191.25,-176.75 191.25,-176.75 185.25,-176.75 179.25,-170.75 179.25,-164.75 179.25,-164.75 179.25,-12 179.25,-12 179.25,-6 185.25,0 191.25,0"/>
<polygon fill="#a3adb8" stroke="none" points="180.25,-155 180.25,-175.75 373.5,-175.75 373.5,-155 180.25,-155"/>
<text xml:space="preserve" text-anchor="start" x="184.25" y="-161.35" font-family="Helvetica,Arial,sans-serif" font-weight="bold" font-size="12.00" fill="white">STORE_ORDERS</text>
<text xml:space="preserve" text-anchor="start" x="285.5" y="-161.35" font-family="Helvetica,Arial,sans-serif" font-size="8.00" fill="#eef2f5">  VIEW · NOT MAPPED</text>
<text xml:space="preserve" text-anchor="start" x="184.25" y="-142.75" font-family="Helvetica,Arial,sans-serif" font-size="10.00" fill="#8a949e">total</text>
<text xml:space="preserve" text-anchor="start" x="184.25" y="-123.5" font-family="Helvetica,Arial,sans-serif" font-size="10.00" fill="#8a949e">store_name</text>
<text xml:space="preserve" text-anchor="start" x="258.25" y="-123.5" font-family="Helvetica,Arial,sans-serif" font-size="10.00" fill="#8a949e">varchar2(255)</text>
<text xml:space="preserve" text-anchor="start" x="184.25" y="-104.25" font-family="Helvetica,Arial,sans-serif" font-size="10.00" fill="#8a949e">address</text>
<text xml:space="preserve" text-anchor="start" x="184.25" y="-85" font-family="Helvetica,Arial,sans-serif" font-size="10.00" fill="#8a949e">latitude</text>
<text xml:space="preserve" text-anchor="start" x="258.25" y="-85" font-family="Helvetica,Arial,sans-serif" font-size="10.00" fill="#8a949e">number(9,6)</text>
<text xml:space="preserve" text-anchor="start" x="184.25" y="-65.75" font-family="Helvetica,Arial,sans-serif" font-size="10.00" fill="#8a949e">longitude</text>
<text xml:space="preserve" text-anchor="start" x="258.25" y="-65.75" font-family="Helvetica,Arial,sans-serif" font-size="10.00" fill="#8a949e">number(9,6)</text>
<text xml:space="preserve" text-anchor="start" x="184.25" y="-46.5" font-family="Helvetica,Arial,sans-serif" font-size="10.00" fill="#8a949e">order_status</text>
<text xml:space="preserve" text-anchor="start" x="258.25" y="-46.5" font-family="Helvetica,Arial,sans-serif" font-size="10.00" fill="#8a949e">varchar2(10)</text>
<text xml:space="preserve" text-anchor="start" x="184.25" y="-27.25" font-family="Helvetica,Arial,sans-serif" font-size="10.00" fill="#8a949e">order_count</text>
<text xml:space="preserve" text-anchor="start" x="184.25" y="-8" font-family="Helvetica,Arial,sans-serif" font-size="10.00" fill="#8a949e">total_sales</text>
</g>
<!-- STORES&#45;&gt;STORE_ORDERS -->
<g id="edge4" class="edge">
<title>STORES&#45;&gt;STORE_ORDERS</title>
<path fill="none" stroke="#a9b4bf" stroke-dasharray="5,2" d="M276.88,-255.82C276.88,-232.54 276.88,-208.31 276.88,-185.79"/>
<polygon fill="#a9b4bf" stroke="#a9b4bf" points="276.88,-177.8 280.48,-185.8 276.88,-180.58 276.88,-185.8 276.88,-185.8 276.88,-185.8 276.88,-180.58 273.28,-185.8 276.88,-177.8"/>
</g>
<!-- INVENTORY -->
<g id="node2" class="node">
<title>INVENTORY</title>
<polygon fill="#ffffff" stroke="none" points="0,-569.25 0,-611.25 133.75,-611.25 133.75,-569.25 0,-569.25"/>
<polygon fill="none" stroke="#b8c2cc" points="0,-569.25 0,-611.25 133.75,-611.25 133.75,-569.25 0,-569.25"/>
<polygon fill="#2f4858" stroke="none" points="1,-589.5 1,-610.25 132.75,-610.25 132.75,-589.5 1,-589.5"/>
<text xml:space="preserve" text-anchor="start" x="32" y="-595.85" font-family="Helvetica,Arial,sans-serif" font-weight="bold" font-size="12.00" fill="white">INVENTORY</text>
<text xml:space="preserve" text-anchor="start" x="5" y="-577" font-family="Helvetica,Arial,sans-serif" font-weight="bold" font-size="10.00" fill="#1f2933">inventory_id</text>
<text xml:space="preserve" text-anchor="start" x="70.75" y="-577.25" font-family="Helvetica,Arial,sans-serif" font-size="10.00" fill="#5b6770">integer</text>
<text xml:space="preserve" text-anchor="start" x="108" y="-577.2" font-family="Helvetica,Arial,sans-serif" font-weight="bold" font-size="9.00" fill="#2f4858">PK</text>
</g>
<!-- INVENTORY&#45;&gt;STORES -->
<g id="edge1" class="edge">
<title>INVENTORY&#45;&gt;STORES:store_id</title>
<path fill="none" stroke="#7d8b99" stroke-width="1.1" d="M76.97,-559.78C91.75,-522.52 123.07,-462.75 172.87,-459.06"/>
<polygon fill="#7d8b99" stroke="#7d8b99" stroke-width="1.1" points="76.97,-559.76 69.22,-567.51 75.07,-564.77 73.56,-568.76 73.56,-568.76 73.56,-568.76 75.07,-564.77 77.63,-570.7 76.97,-559.76"/>
<polygon fill="#7d8b99" stroke="#7d8b99" stroke-width="1.1" points="176.57,-453.92 176.94,-463.91 174.94,-463.98 174.57,-453.99 176.57,-453.92"/>
<polyline fill="none" stroke="#7d8b99" stroke-width="1.1" points="177.75,-458.88 172.75,-459.06"/>
</g>
<!-- ORDERS -->
<g id="node3" class="node">
<title>ORDERS</title>
<polygon fill="#ffffff" stroke="none" points="165.38,-569.25 165.38,-611.25 280.38,-611.25 280.38,-569.25 165.38,-569.25"/>
<polygon fill="none" stroke="#b8c2cc" points="165.38,-569.25 165.38,-611.25 280.38,-611.25 280.38,-569.25 165.38,-569.25"/>
<polygon fill="#2f4858" stroke="none" points="166.38,-589.5 166.38,-610.25 279.38,-610.25 279.38,-589.5 166.38,-589.5"/>
<text xml:space="preserve" text-anchor="start" x="196.62" y="-595.85" font-family="Helvetica,Arial,sans-serif" font-weight="bold" font-size="12.00" fill="white">ORDERS</text>
<text xml:space="preserve" text-anchor="start" x="170.38" y="-577" font-family="Helvetica,Arial,sans-serif" font-weight="bold" font-size="10.00" fill="#1f2933">order_id</text>
<text xml:space="preserve" text-anchor="start" x="217.38" y="-577.25" font-family="Helvetica,Arial,sans-serif" font-size="10.00" fill="#5b6770">integer</text>
<text xml:space="preserve" text-anchor="start" x="254.62" y="-577.2" font-family="Helvetica,Arial,sans-serif" font-weight="bold" font-size="9.00" fill="#2f4858">PK</text>
</g>
<!-- ORDERS&#45;&gt;STORES -->
<g id="edge2" class="edge">
<title>ORDERS&#45;&gt;STORES:store_id</title>
<path fill="none" stroke="#7d8b99" stroke-width="1.1" d="M201.64,-561.24C175.28,-524.42 137.84,-463.84 173.09,-459.16"/>
<polygon fill="#7d8b99" stroke="#7d8b99" stroke-width="1.1" points="201.52,-561.07 203.77,-571.8 204.68,-565.41 207.19,-568.85 207.19,-568.85 207.19,-568.85 204.68,-565.41 211.04,-566.5 201.52,-561.07"/>
<polygon fill="#7d8b99" stroke="#7d8b99" stroke-width="1.1" points="176.44,-453.95 177.06,-463.93 175.06,-464.05 174.45,-454.07 176.44,-453.95"/>
<polyline fill="none" stroke="#7d8b99" stroke-width="1.1" points="177.75,-458.88 172.76,-459.18"/>
</g>
<!-- SHIPMENTS -->
<g id="node4" class="node">
<title>SHIPMENTS</title>
<polygon fill="#ffffff" stroke="none" points="312,-569.25 312,-611.25 445.75,-611.25 445.75,-569.25 312,-569.25"/>
<polygon fill="none" stroke="#b8c2cc" points="312,-569.25 312,-611.25 445.75,-611.25 445.75,-569.25 312,-569.25"/>
<polygon fill="#2f4858" stroke="none" points="313,-589.5 313,-610.25 444.75,-610.25 444.75,-589.5 313,-589.5"/>
<text xml:space="preserve" text-anchor="start" x="343.25" y="-595.85" font-family="Helvetica,Arial,sans-serif" font-weight="bold" font-size="12.00" fill="white">SHIPMENTS</text>
<text xml:space="preserve" text-anchor="start" x="317" y="-577" font-family="Helvetica,Arial,sans-serif" font-weight="bold" font-size="10.00" fill="#1f2933">shipment_id</text>
<text xml:space="preserve" text-anchor="start" x="382.75" y="-577.25" font-family="Helvetica,Arial,sans-serif" font-size="10.00" fill="#5b6770">integer</text>
<text xml:space="preserve" text-anchor="start" x="420" y="-577.2" font-family="Helvetica,Arial,sans-serif" font-weight="bold" font-size="9.00" fill="#2f4858">PK</text>
</g>
<!-- SHIPMENTS&#45;&gt;STORES -->
<g id="edge3" class="edge">
<title>SHIPMENTS&#45;&gt;STORES:store_id</title>
<path fill="none" stroke="#7d8b99" stroke-width="1.1" d="M314.07,-565.6C261.87,-545.11 194.64,-514.96 178.75,-490.25 172.26,-480.17 165.88,-464.24 173.07,-459.96"/>
<polygon fill="#7d8b99" stroke="#7d8b99" stroke-width="1.1" points="313.96,-565.56 321.65,-573.37 318.96,-567.5 322.94,-569.04 322.94,-569.04 322.94,-569.04 318.96,-567.5 324.91,-564.98 313.96,-565.56"/>
<polygon fill="#7d8b99" stroke="#7d8b99" stroke-width="1.1" points="175.64,-454.23 177.91,-463.97 175.96,-464.42 173.69,-454.69 175.64,-454.23"/>
<polyline fill="none" stroke="#7d8b99" stroke-width="1.1" points="177.75,-458.88 172.88,-460.01"/>
</g>
</g>
</svg>
