<?xml version="1.0" encoding="UTF-8" standalone="no"?>
<!DOCTYPE svg PUBLIC "-//W3C//DTD SVG 1.1//EN"
 "http://www.w3.org/Graphics/SVG/1.1/DTD/svg11.dtd">
<!-- Generated by graphviz version 16.1.0 (20260904.0139)
 -->
<!-- Title: erd Pages: 1 -->
<!-- the CHANNELS table and its direct neighbours, as the sh module maps them. Generated by the erd skill; do not edit by hand. -->
<svg width="476pt" height="323pt"
 viewBox="0.00 0.00 476.00 323.00" xmlns="http://www.w3.org/2000/svg" xmlns:xlink="http://www.w3.org/1999/xlink">
<g id="graph0" class="graph" transform="scale(1 1) rotate(0) translate(21.6 301.46)">
<title>erd</title>
<polygon fill="white" stroke="none" points="-21.6,21.6 -21.6,-301.46 453.96,-301.46 453.96,21.6 -21.6,21.6"/>
<!-- CHANNELS -->
<g id="node1" class="node">
<title>CHANNELS</title>
<polygon fill="#ffffff" stroke="none" points="243.11,-18.86 243.11,-157.11 432.36,-157.11 432.36,-18.86 243.11,-18.86"/>
<polygon fill="none" stroke="#b8c2cc" points="243.11,-18.86 243.11,-157.11 432.36,-157.11 432.36,-18.86 243.11,-18.86"/>
<polygon fill="#8c4a3f" stroke="none" points="244.11,-135.36 244.11,-156.11 431.36,-156.11 431.36,-135.36 244.11,-135.36"/>
<text xml:space="preserve" text-anchor="start" x="303.23" y="-141.71" font-family="Helvetica,Arial,sans-serif" font-weight="bold" font-size="12.00" fill="white">CHANNELS</text>
<text xml:space="preserve" text-anchor="start" x="248.11" y="-122.86" font-family="Helvetica,Arial,sans-serif" font-weight="bold" font-size="10.00" fill="#1f2933">channel_id</text>
<text xml:space="preserve" text-anchor="start" x="331.11" y="-123.11" font-family="Helvetica,Arial,sans-serif" font-size="10.00" fill="#5b6770">number</text>
<text xml:space="preserve" text-anchor="start" x="393.11" y="-123.06" font-family="Helvetica,Arial,sans-serif" font-weight="bold" font-size="9.00" fill="#8c4a3f">PK</text>
<text xml:space="preserve" text-anchor="start" x="248.11" y="-103.86" font-family="Helvetica,Arial,sans-serif" font-size="10.00" fill="#1f2933">channel_desc</text>
<text xml:space="preserve" text-anchor="start" x="331.11" y="-103.86" font-family="Helvetica,Arial,sans-serif" font-size="10.00" fill="#5b6770">varchar2(20)</text>
<text xml:space="preserve" text-anchor="start" x="413.86" y="-103.86" font-family="Helvetica,Arial,sans-serif" font-size="9.00" fill="#8b949e">NN</text>
<text xml:space="preserve" text-anchor="start" x="248.11" y="-84.61" font-family="Helvetica,Arial,sans-serif" font-size="10.00" fill="#1f2933">channel_class</text>
<text xml:space="preserve" text-anchor="start" x="331.11" y="-84.61" font-family="Helvetica,Arial,sans-serif" font-size="10.00" fill="#5b6770">varchar2(20)</text>
<text xml:space="preserve" text-anchor="start" x="413.86" y="-84.61" font-family="Helvetica,Arial,sans-serif" font-size="9.00" fill="#8b949e">NN</text>
<text xml:space="preserve" text-anchor="start" x="248.11" y="-65.36" font-family="Helvetica,Arial,sans-serif" font-size="10.00" fill="#1f2933">channel_class_id</text>
<text xml:space="preserve" text-anchor="start" x="331.11" y="-65.36" font-family="Helvetica,Arial,sans-serif" font-size="10.00" fill="#5b6770">number</text>
<text xml:space="preserve" text-anchor="start" x="413.86" y="-65.36" font-family="Helvetica,Arial,sans-serif" font-size="9.00" fill="#8b949e">NN</text>
<text xml:space="preserve" text-anchor="start" x="248.11" y="-46.11" font-family="Helvetica,Arial,sans-serif" font-size="10.00" fill="#1f2933">channel_total</text>
<text xml:space="preserve" text-anchor="start" x="331.11" y="-46.11" font-family="Helvetica,Arial,sans-serif" font-size="10.00" fill="#5b6770">varchar2(13)</text>
<text xml:space="preserve" text-anchor="start" x="413.86" y="-46.11" font-family="Helvetica,Arial,sans-serif" font-size="9.00" fill="#8b949e">NN</text>
<text xml:space="preserve" text-anchor="start" x="248.11" y="-26.86" font-family="Helvetica,Arial,sans-serif" font-size="10.00" fill="#1f2933">channel_total_id</text>
<text xml:space="preserve" text-anchor="start" x="331.11" y="-26.86" font-family="Helvetica,Arial,sans-serif" font-size="10.00" fill="#5b6770">number</text>
<text xml:space="preserve" text-anchor="start" x="413.86" y="-26.86" font-family="Helvetica,Arial,sans-serif" font-size="9.00" fill="#8b949e">NN</text>
</g>
<!-- COSTS -->
<g id="node2" class="node">
<title>COSTS</title>
<polygon fill="#ffffff" stroke="none" points="14.23,-180.11 14.23,-279.86 158.48,-279.86 158.48,-180.11 14.23,-180.11"/>
<polygon fill="none" stroke="#b8c2cc" points="14.23,-180.11 14.23,-279.86 158.48,-279.86 158.48,-180.11 14.23,-180.11"/>
<polygon fill="#2f4858" stroke="none" points="15.23,-258.11 15.23,-278.86 157.48,-278.86 157.48,-258.11 15.23,-258.11"/>
<text xml:space="preserve" text-anchor="start" x="65.36" y="-264.46" font-family="Helvetica,Arial,sans-serif" font-weight="bold" font-size="12.00" fill="white">COSTS</text>
<text xml:space="preserve" text-anchor="start" x="19.23" y="-245.61" font-family="Helvetica,Arial,sans-serif" font-weight="bold" font-size="10.00" fill="#1f2933">prod_id</text>
<text xml:space="preserve" text-anchor="start" x="78.23" y="-245.86" font-family="Helvetica,Arial,sans-serif" font-size="10.00" fill="#5b6770">number</text>
<text xml:space="preserve" text-anchor="start" x="118.48" y="-245.81" font-family="Helvetica,Arial,sans-serif" font-weight="bold" font-size="9.00" fill="#2f4858">PK FK</text>
<text xml:space="preserve" text-anchor="start" x="19.23" y="-226.36" font-family="Helvetica,Arial,sans-serif" font-weight="bold" font-size="10.00" fill="#1f2933">time_id</text>
<text xml:space="preserve" text-anchor="start" x="78.23" y="-226.61" font-family="Helvetica,Arial,sans-serif" font-size="10.00" fill="#5b6770">date</text>
<text xml:space="preserve" text-anchor="start" x="118.48" y="-226.56" font-family="Helvetica,Arial,sans-serif" font-weight="bold" font-size="9.00" fill="#2f4858">PK FK</text>
<text xml:space="preserve" text-anchor="start" x="19.23" y="-207.11" font-family="Helvetica,Arial,sans-serif" font-weight="bold" font-size="10.00" fill="#1f2933">promo_id</text>
<text xml:space="preserve" text-anchor="start" x="78.23" y="-207.36" font-family="Helvetica,Arial,sans-serif" font-size="10.00" fill="#5b6770">number</text>
<text xml:space="preserve" text-anchor="start" x="118.48" y="-207.31" font-family="Helvetica,Arial,sans-serif" font-weight="bold" font-size="9.00" fill="#2f4858">PK FK</text>
<text xml:space="preserve" text-anchor="start" x="19.23" y="-187.86" font-family="Helvetica,Arial,sans-serif" font-weight="bold" font-size="10.00" fill="#1f2933">channel_id</text>
<text xml:space="preserve" text-anchor="start" x="78.23" y="-188.11" font-family="Helvetica,Arial,sans-serif" font-size="10.00" fill="#5b6770">number</text>
<text xml:space="preserve" text-anchor="start" x="118.48" y="-188.06" font-family="Helvetica,Arial,sans-serif" font-weight="bold" font-size="9.00" fill="#2f4858">PK FK</text>
</g>
<!-- COSTS&#45;&gt;CHANNELS -->
<g id="edge1" class="edge">
<title>COSTS:channel_id&#45;&gt;CHANNELS:channel_id</title>
<path fill="none" stroke="#7d8b99" stroke-width="1.1" d="M50.12,-171.18C70.42,-158.4 142.21,-171.6 164.11,-164.98 200.02,-154.13 203.64,-128.1 238.25,-125.89"/>
<polygon fill="#7d8b99" stroke="#7d8b99" stroke-width="1.1" points="50.09,-171.23 41.07,-177.47 47.32,-175.83 45.11,-179.48 45.11,-179.48 45.11,-179.48 47.32,-175.83 48.77,-182.12 50.09,-171.23"/>
<polygon fill="#7d8b99" stroke="#7d8b99" stroke-width="1.1" points="241.95,-120.77 242.26,-130.76 240.26,-130.82 239.95,-120.83 241.95,-120.77"/>
<polyline fill="none" stroke="#7d8b99" stroke-width="1.1" points="243.11,-125.73 238.11,-125.89"/>
</g>
<!-- SALES -->
<g id="node3" class="node">
<title>SALES</title>
<polygon fill="#ffffff" stroke="none" points="8.61,-29.48 8.61,-148.48 164.11,-148.48 164.11,-29.48 8.61,-29.48"/>
<polygon fill="none" stroke="#b8c2cc" points="8.61,-29.48 8.61,-148.48 164.11,-148.48 164.11,-29.48 8.61,-29.48"/>
<polygon fill="#2f4858" stroke="none" points="9.61,-126.73 9.61,-147.48 163.11,-147.48 163.11,-126.73 9.61,-126.73"/>
<text xml:space="preserve" text-anchor="start" x="65.73" y="-133.08" font-family="Helvetica,Arial,sans-serif" font-weight="bold" font-size="12.00" fill="white">SALES</text>
<text xml:space="preserve" text-anchor="start" x="13.61" y="-114.23" font-family="Helvetica,Arial,sans-serif" font-weight="bold" font-size="10.00" fill="#1f2933">prod_id</text>
<text xml:space="preserve" text-anchor="start" x="72.61" y="-114.48" font-family="Helvetica,Arial,sans-serif" font-size="10.00" fill="#5b6770">number(6)</text>
<text xml:space="preserve" text-anchor="start" x="124.11" y="-114.43" font-family="Helvetica,Arial,sans-serif" font-weight="bold" font-size="9.00" fill="#2f4858">PK FK</text>
<text xml:space="preserve" text-anchor="start" x="13.61" y="-94.98" font-family="Helvetica,Arial,sans-serif" font-weight="bold" font-size="10.00" fill="#1f2933">cust_id</text>
<text xml:space="preserve" text-anchor="start" x="72.61" y="-95.23" font-family="Helvetica,Arial,sans-serif" font-size="10.00" fill="#5b6770">number</text>
<text xml:space="preserve" text-anchor="start" x="124.11" y="-95.18" font-family="Helvetica,Arial,sans-serif" font-weight="bold" font-size="9.00" fill="#2f4858">PK FK</text>
<text xml:space="preserve" text-anchor="start" x="13.61" y="-75.73" font-family="Helvetica,Arial,sans-serif" font-weight="bold" font-size="10.00" fill="#1f2933">time_id</text>
<text xml:space="preserve" text-anchor="start" x="72.61" y="-75.98" font-family="Helvetica,Arial,sans-serif" font-size="10.00" fill="#5b6770">date</text>
<text xml:space="preserve" text-anchor="start" x="124.11" y="-75.93" font-family="Helvetica,Arial,sans-serif" font-weight="bold" font-size="9.00" fill="#2f4858">PK FK</text>
<text xml:space="preserve" text-anchor="start" x="13.61" y="-56.48" font-family="Helvetica,Arial,sans-serif" font-weight="bold" font-size="10.00" fill="#1f2933">channel_id</text>
<text xml:space="preserve" text-anchor="start" x="72.61" y="-56.73" font-family="Helvetica,Arial,sans-serif" font-size="10.00" fill="#5b6770">number(1)</text>
<text xml:space="preserve" text-anchor="start" x="124.11" y="-56.68" font-family="Helvetica,Arial,sans-serif" font-weight="bold" font-size="9.00" fill="#2f4858">PK FK</text>
<text xml:space="preserve" text-anchor="start" x="13.61" y="-37.23" font-family="Helvetica,Arial,sans-serif" font-weight="bold" font-size="10.00" fill="#1f2933">promo_id</text>
<text xml:space="preserve" text-anchor="start" x="72.61" y="-37.48" font-family="Helvetica,Arial,sans-serif" font-size="10.00" fill="#5b6770">number(6)</text>
<text xml:space="preserve" text-anchor="start" x="124.11" y="-37.43" font-family="Helvetica,Arial,sans-serif" font-weight="bold" font-size="9.00" fill="#2f4858">PK FK</text>
</g>
<!-- SALES&#45;&gt;CHANNELS -->
<g id="edge2" class="edge">
<title>SALES:channel_id&#45;&gt;CHANNELS:channel_id</title>
<path fill="none" stroke="#7d8b99" stroke-width="1.1" d="M0.65,-52.85C-0.65,-46 3.49,-35.4 9.61,-29.48 58.97,18.25 102.03,-0.13 164.11,-29.48 212.57,-52.4 189.34,-121.24 238.15,-125.53"/>
<polygon fill="#7d8b99" stroke="#7d8b99" stroke-width="1.1" points="0.58,-52.79 5.47,-62.61 4.74,-56.19 8.04,-58.89 8.04,-58.89 8.04,-58.89 4.74,-56.19 11.17,-55.64 0.58,-52.79"/>
<polygon fill="#7d8b99" stroke="#7d8b99" stroke-width="1.1" points="242.32,-120.7 241.9,-130.69 239.9,-130.6 240.32,-120.61 242.32,-120.7"/>
<polyline fill="none" stroke="#7d8b99" stroke-width="1.1" points="243.11,-125.73 238.11,-125.52"/>
</g>
</g>
</svg>
