<?xml version="1.0" encoding="UTF-8" standalone="no"?>
<!DOCTYPE svg PUBLIC "-//W3C//DTD SVG 1.1//EN"
 "http://www.w3.org/Graphics/SVG/1.1/DTD/svg11.dtd">
<!-- Generated by graphviz version 16.1.0 (20260904.0139)
 -->
<!-- Title: erd Pages: 1 -->
<!-- Human Resources: every table the hr module maps. Generated by the erd skill; do not edit by hand. -->
<svg width="1243pt" height="577pt"
 viewBox="0.00 0.00 1243.00 577.00" xmlns="http://www.w3.org/2000/svg" xmlns:xlink="http://www.w3.org/1999/xlink">
<g id="graph0" class="graph" transform="scale(1 1) rotate(0) translate(21.6 555.54)">
<title>erd</title>
<polygon fill="white" stroke="none" points="-21.6,21.6 -21.6,-555.54 1221.71,-555.54 1221.71,21.6 -21.6,21.6"/>
<!-- COUNTRIES -->
<g id="node1" class="node">
<title>COUNTRIES</title>
<polygon fill="#ffffff" stroke="none" points="801.48,-18.38 801.48,-98.88 963.73,-98.88 963.73,-18.38 801.48,-18.38"/>
<polygon fill="none" stroke="#b8c2cc" points="801.48,-18.38 801.48,-98.88 963.73,-98.88 963.73,-18.38 801.48,-18.38"/>
<polygon fill="#2f4858" stroke="none" points="802.48,-77.12 802.48,-97.88 962.73,-97.88 962.73,-77.12 802.48,-77.12"/>
<text xml:space="preserve" text-anchor="start" x="846.61" y="-83.47" font-family="Helvetica,Arial,sans-serif" font-weight="bold" font-size="12.00" fill="white">COUNTRIES</text>
<text xml:space="preserve" text-anchor="start" x="806.48" y="-64.62" font-family="Helvetica,Arial,sans-serif" font-weight="bold" font-size="10.00" fill="#1f2933">country_id</text>
<text xml:space="preserve" text-anchor="start" x="875.98" y="-64.88" font-family="Helvetica,Arial,sans-serif" font-size="10.00" fill="#5b6770">char(2)</text>
<text xml:space="preserve" text-anchor="start" x="937.98" y="-64.83" font-family="Helvetica,Arial,sans-serif" font-weight="bold" font-size="9.00" fill="#2f4858">PK</text>
<text xml:space="preserve" text-anchor="start" x="806.48" y="-45.62" font-family="Helvetica,Arial,sans-serif" font-size="10.00" fill="#1f2933">country_name</text>
<text xml:space="preserve" text-anchor="start" x="875.98" y="-45.62" font-family="Helvetica,Arial,sans-serif" font-size="10.00" fill="#5b6770">varchar2(60)</text>
<text xml:space="preserve" text-anchor="start" x="806.48" y="-26.38" font-family="Helvetica,Arial,sans-serif" font-size="10.00" fill="#1f2933">region_id</text>
<text xml:space="preserve" text-anchor="start" x="875.98" y="-26.38" font-family="Helvetica,Arial,sans-serif" font-size="10.00" fill="#5b6770">number</text>
<text xml:space="preserve" text-anchor="start" x="938.36" y="-26.32" font-family="Helvetica,Arial,sans-serif" font-weight="bold" font-size="9.00" fill="#2f4858">FK</text>
</g>
<!-- REGIONS -->
<g id="node7" class="node">
<title>REGIONS</title>
<polygon fill="#ffffff" stroke="none" points="1043.86,0 1043.86,-61.25 1200.11,-61.25 1200.11,0 1043.86,0"/>
<polygon fill="none" stroke="#b8c2cc" points="1043.86,0 1043.86,-61.25 1200.11,-61.25 1200.11,0 1043.86,0"/>
<polygon fill="#2f4858" stroke="none" points="1044.86,-39.5 1044.86,-60.25 1199.11,-60.25 1199.11,-39.5 1044.86,-39.5"/>
<text xml:space="preserve" text-anchor="start" x="1094.23" y="-45.85" font-family="Helvetica,Arial,sans-serif" font-weight="bold" font-size="12.00" fill="white">REGIONS</text>
<text xml:space="preserve" text-anchor="start" x="1048.86" y="-27" font-family="Helvetica,Arial,sans-serif" font-weight="bold" font-size="10.00" fill="#1f2933">region_id</text>
<text xml:space="preserve" text-anchor="start" x="1112.36" y="-27.25" font-family="Helvetica,Arial,sans-serif" font-size="10.00" fill="#5b6770">number</text>
<text xml:space="preserve" text-anchor="start" x="1174.36" y="-27.2" font-family="Helvetica,Arial,sans-serif" font-weight="bold" font-size="9.00" fill="#2f4858">PK</text>
<text xml:space="preserve" text-anchor="start" x="1048.86" y="-8" font-family="Helvetica,Arial,sans-serif" font-size="10.00" fill="#1f2933">region_name</text>
<text xml:space="preserve" text-anchor="start" x="1112.36" y="-8" font-family="Helvetica,Arial,sans-serif" font-size="10.00" fill="#5b6770">varchar2(25)</text>
</g>
<!-- COUNTRIES&#45;&gt;REGIONS -->
<g id="edge1" class="edge">
<title>COUNTRIES:region_id&#45;&gt;REGIONS:region_id</title>
<path fill="none" stroke="#7d8b99" stroke-width="1.1" d="M840.62,-8.71C862.53,16.48 985.04,-24.16 1034.9,-29.34"/>
<polygon fill="#7d8b99" stroke="#7d8b99" stroke-width="1.1" points="840.66,-8.59 833.11,-16.54 838.88,-13.66 837.48,-17.68 837.48,-17.68 837.48,-17.68 838.88,-13.66 841.6,-19.51 840.66,-8.59"/>
<ellipse fill="none" stroke="#7d8b99" stroke-width="1.1" cx="1039.32" cy="-29.6" rx="4" ry="4"/>
</g>
<!-- DEPARTMENTS -->
<g id="node2" class="node">
<title>DEPARTMENTS</title>
<polygon fill="#ffffff" stroke="none" points="264.61,-224.75 264.61,-324.5 456.86,-324.5 456.86,-224.75 264.61,-224.75"/>
<polygon fill="none" stroke="#b8c2cc" points="264.61,-224.75 264.61,-324.5 456.86,-324.5 456.86,-224.75 264.61,-224.75"/>
<polygon fill="#2f4858" stroke="none" points="265.61,-302.75 265.61,-323.5 455.86,-323.5 455.86,-302.75 265.61,-302.75"/>
<text xml:space="preserve" text-anchor="start" x="314.61" y="-309.1" font-family="Helvetica,Arial,sans-serif" font-weight="bold" font-size="12.00" fill="white">DEPARTMENTS</text>
<text xml:space="preserve" text-anchor="start" x="269.61" y="-290.25" font-family="Helvetica,Arial,sans-serif" font-weight="bold" font-size="10.00" fill="#1f2933">department_id</text>
<text xml:space="preserve" text-anchor="start" x="355.61" y="-290.5" font-family="Helvetica,Arial,sans-serif" font-size="10.00" fill="#5b6770">number(4)</text>
<text xml:space="preserve" text-anchor="start" x="417.61" y="-290.45" font-family="Helvetica,Arial,sans-serif" font-weight="bold" font-size="9.00" fill="#2f4858">PK</text>
<text xml:space="preserve" text-anchor="start" x="269.61" y="-271.25" font-family="Helvetica,Arial,sans-serif" font-size="10.00" fill="#1f2933">department_name</text>
<text xml:space="preserve" text-anchor="start" x="355.61" y="-271.25" font-family="Helvetica,Arial,sans-serif" font-size="10.00" fill="#5b6770">varchar2(30)</text>
<text xml:space="preserve" text-anchor="start" x="438.36" y="-271.25" font-family="Helvetica,Arial,sans-serif" font-size="9.00" fill="#8b949e">NN</text>
<text xml:space="preserve" text-anchor="start" x="269.61" y="-252" font-family="Helvetica,Arial,sans-serif" font-size="10.00" fill="#1f2933">manager_id</text>
<text xml:space="preserve" text-anchor="start" x="355.61" y="-252" font-family="Helvetica,Arial,sans-serif" font-size="10.00" fill="#5b6770">number(6)</text>
<text xml:space="preserve" text-anchor="start" x="417.98" y="-251.95" font-family="Helvetica,Arial,sans-serif" font-weight="bold" font-size="9.00" fill="#2f4858">FK</text>
<text xml:space="preserve" text-anchor="start" x="269.61" y="-232.75" font-family="Helvetica,Arial,sans-serif" font-size="10.00" fill="#1f2933">location_id</text>
<text xml:space="preserve" text-anchor="start" x="355.61" y="-232.75" font-family="Helvetica,Arial,sans-serif" font-size="10.00" fill="#5b6770">number(4)</text>
<text xml:space="preserve" text-anchor="start" x="417.98" y="-232.7" font-family="Helvetica,Arial,sans-serif" font-weight="bold" font-size="9.00" fill="#2f4858">FK</text>
</g>
<!-- EMPLOYEES -->
<g id="node3" class="node">
<title>EMPLOYEES</title>
<polygon fill="#ffffff" stroke="none" points="535.86,-226.38 535.86,-460.88 721.36,-460.88 721.36,-226.38 535.86,-226.38"/>
<polygon fill="none" stroke="#b8c2cc" points="535.86,-226.38 535.86,-460.88 721.36,-460.88 721.36,-226.38 535.86,-226.38"/>
<polygon fill="#2f4858" stroke="none" points="536.86,-439.12 536.86,-459.88 720.36,-459.88 720.36,-439.12 536.86,-439.12"/>
<text xml:space="preserve" text-anchor="start" x="590.73" y="-445.48" font-family="Helvetica,Arial,sans-serif" font-weight="bold" font-size="12.00" fill="white">EMPLOYEES</text>
<text xml:space="preserve" text-anchor="start" x="540.86" y="-426.62" font-family="Helvetica,Arial,sans-serif" font-weight="bold" font-size="10.00" fill="#1f2933">employee_id</text>
<text xml:space="preserve" text-anchor="start" x="620.11" y="-426.88" font-family="Helvetica,Arial,sans-serif" font-size="10.00" fill="#5b6770">number(6)</text>
<text xml:space="preserve" text-anchor="start" x="682.11" y="-426.82" font-family="Helvetica,Arial,sans-serif" font-weight="bold" font-size="9.00" fill="#2f4858">PK</text>
<text xml:space="preserve" text-anchor="start" x="540.86" y="-407.62" font-family="Helvetica,Arial,sans-serif" font-size="10.00" fill="#1f2933">first_name</text>
<text xml:space="preserve" text-anchor="start" x="620.11" y="-407.62" font-family="Helvetica,Arial,sans-serif" font-size="10.00" fill="#5b6770">varchar2(20)</text>
<text xml:space="preserve" text-anchor="start" x="540.86" y="-388.38" font-family="Helvetica,Arial,sans-serif" font-size="10.00" fill="#1f2933">last_name</text>
<text xml:space="preserve" text-anchor="start" x="620.11" y="-388.38" font-family="Helvetica,Arial,sans-serif" font-size="10.00" fill="#5b6770">varchar2(25)</text>
<text xml:space="preserve" text-anchor="start" x="702.86" y="-388.38" font-family="Helvetica,Arial,sans-serif" font-size="9.00" fill="#8b949e">NN</text>
<text xml:space="preserve" text-anchor="start" x="540.86" y="-369.12" font-family="Helvetica,Arial,sans-serif" font-size="10.00" fill="#1f2933">email</text>
<text xml:space="preserve" text-anchor="start" x="620.11" y="-369.12" font-family="Helvetica,Arial,sans-serif" font-size="10.00" fill="#5b6770">varchar2(25)</text>
<text xml:space="preserve" text-anchor="start" x="702.86" y="-369.12" font-family="Helvetica,Arial,sans-serif" font-size="9.00" fill="#8b949e">NN</text>
<text xml:space="preserve" text-anchor="start" x="540.86" y="-349.88" font-family="Helvetica,Arial,sans-serif" font-size="10.00" fill="#1f2933">phone_number</text>
<text xml:space="preserve" text-anchor="start" x="620.11" y="-349.88" font-family="Helvetica,Arial,sans-serif" font-size="10.00" fill="#5b6770">varchar2(20)</text>
<text xml:space="preserve" text-anchor="start" x="540.86" y="-330.62" font-family="Helvetica,Arial,sans-serif" font-size="10.00" fill="#1f2933">hire_date</text>
<text xml:space="preserve" text-anchor="start" x="620.11" y="-330.62" font-family="Helvetica,Arial,sans-serif" font-size="10.00" fill="#5b6770">date</text>
<text xml:space="preserve" text-anchor="start" x="702.86" y="-330.62" font-family="Helvetica,Arial,sans-serif" font-size="9.00" fill="#8b949e">NN</text>
<text xml:space="preserve" text-anchor="start" x="540.86" y="-311.38" font-family="Helvetica,Arial,sans-serif" font-size="10.00" fill="#1f2933">job_id</text>
<text xml:space="preserve" text-anchor="start" x="620.11" y="-311.38" font-family="Helvetica,Arial,sans-serif" font-size="10.00" fill="#5b6770">varchar2(10)</text>
<text xml:space="preserve" text-anchor="start" x="682.48" y="-311.32" font-family="Helvetica,Arial,sans-serif" font-weight="bold" font-size="9.00" fill="#2f4858">FK</text>
<text xml:space="preserve" text-anchor="start" x="702.86" y="-311.38" font-family="Helvetica,Arial,sans-serif" font-size="9.00" fill="#8b949e">NN</text>
<text xml:space="preserve" text-anchor="start" x="540.86" y="-292.12" font-family="Helvetica,Arial,sans-serif" font-size="10.00" fill="#1f2933">salary</text>
<text xml:space="preserve" text-anchor="start" x="620.11" y="-292.12" font-family="Helvetica,Arial,sans-serif" font-size="10.00" fill="#5b6770">number(8,2)</text>
<text xml:space="preserve" text-anchor="start" x="540.86" y="-272.88" font-family="Helvetica,Arial,sans-serif" font-size="10.00" fill="#1f2933">commission_pct</text>
<text xml:space="preserve" text-anchor="start" x="620.11" y="-272.88" font-family="Helvetica,Arial,sans-serif" font-size="10.00" fill="#5b6770">number(2,2)</text>
<text xml:space="preserve" text-anchor="start" x="540.86" y="-253.62" font-family="Helvetica,Arial,sans-serif" font-size="10.00" fill="#1f2933">manager_id</text>
<text xml:space="preserve" text-anchor="start" x="620.11" y="-253.62" font-family="Helvetica,Arial,sans-serif" font-size="10.00" fill="#5b6770">number(6)</text>
<text xml:space="preserve" text-anchor="start" x="682.48" y="-253.57" font-family="Helvetica,Arial,sans-serif" font-weight="bold" font-size="9.00" fill="#2f4858">FK</text>
<text xml:space="preserve" text-anchor="start" x="540.86" y="-234.38" font-family="Helvetica,Arial,sans-serif" font-size="10.00" fill="#1f2933">department_id</text>
<text xml:space="preserve" text-anchor="start" x="620.11" y="-234.38" font-family="Helvetica,Arial,sans-serif" font-size="10.00" fill="#5b6770">number(4)</text>
<text xml:space="preserve" text-anchor="start" x="682.48" y="-234.32" font-family="Helvetica,Arial,sans-serif" font-weight="bold" font-size="9.00" fill="#2f4858">FK</text>
</g>
<!-- DEPARTMENTS&#45;&gt;EMPLOYEES -->
<g id="edge3" class="edge">
<title>DEPARTMENTS:manager_id&#45;&gt;EMPLOYEES:employee_id</title>
<path fill="none" stroke="#7d8b99" stroke-width="1.1" d="M256.65,-248.12C255.35,-241.26 259.49,-230.67 265.61,-224.75 326.71,-165.66 386.77,-176.67 456.86,-224.75 534.62,-278.1 444.69,-419.67 526.78,-429.01"/>
<polygon fill="#7d8b99" stroke="#7d8b99" stroke-width="1.1" points="256.58,-248.06 261.47,-257.87 260.74,-251.46 264.04,-254.16 264.04,-254.16 264.04,-254.16 260.74,-251.46 267.17,-250.91 256.58,-248.06"/>
<ellipse fill="none" stroke="#7d8b99" stroke-width="1.1" cx="531.31" cy="-429.26" rx="4" ry="4"/>
</g>
<!-- LOCATIONS -->
<g id="node6" class="node">
<title>LOCATIONS</title>
<polygon fill="#ffffff" stroke="none" points="539.23,-56.5 539.23,-194.75 717.98,-194.75 717.98,-56.5 539.23,-56.5"/>
<polygon fill="none" stroke="#b8c2cc" points="539.23,-56.5 539.23,-194.75 717.98,-194.75 717.98,-56.5 539.23,-56.5"/>
<polygon fill="#2f4858" stroke="none" points="540.23,-173 540.23,-193.75 716.98,-193.75 716.98,-173 540.23,-173"/>
<text xml:space="preserve" text-anchor="start" x="593.73" y="-179.35" font-family="Helvetica,Arial,sans-serif" font-weight="bold" font-size="12.00" fill="white">LOCATIONS</text>
<text xml:space="preserve" text-anchor="start" x="544.23" y="-160.5" font-family="Helvetica,Arial,sans-serif" font-weight="bold" font-size="10.00" fill="#1f2933">location_id</text>
<text xml:space="preserve" text-anchor="start" x="616.73" y="-160.75" font-family="Helvetica,Arial,sans-serif" font-size="10.00" fill="#5b6770">number(4)</text>
<text xml:space="preserve" text-anchor="start" x="678.73" y="-160.7" font-family="Helvetica,Arial,sans-serif" font-weight="bold" font-size="9.00" fill="#2f4858">PK</text>
<text xml:space="preserve" text-anchor="start" x="544.23" y="-141.5" font-family="Helvetica,Arial,sans-serif" font-size="10.00" fill="#1f2933">street_address</text>
<text xml:space="preserve" text-anchor="start" x="616.73" y="-141.5" font-family="Helvetica,Arial,sans-serif" font-size="10.00" fill="#5b6770">varchar2(40)</text>
<text xml:space="preserve" text-anchor="start" x="544.23" y="-122.25" font-family="Helvetica,Arial,sans-serif" font-size="10.00" fill="#1f2933">postal_code</text>
<text xml:space="preserve" text-anchor="start" x="616.73" y="-122.25" font-family="Helvetica,Arial,sans-serif" font-size="10.00" fill="#5b6770">varchar2(12)</text>
<text xml:space="preserve" text-anchor="start" x="544.23" y="-103" font-family="Helvetica,Arial,sans-serif" font-size="10.00" fill="#1f2933">city</text>
<text xml:space="preserve" text-anchor="start" x="616.73" y="-103" font-family="Helvetica,Arial,sans-serif" font-size="10.00" fill="#5b6770">varchar2(30)</text>
<text xml:space="preserve" text-anchor="start" x="699.48" y="-103" font-family="Helvetica,Arial,sans-serif" font-size="9.00" fill="#8b949e">NN</text>
<text xml:space="preserve" text-anchor="start" x="544.23" y="-83.75" font-family="Helvetica,Arial,sans-serif" font-size="10.00" fill="#1f2933">state_province</text>
<text xml:space="preserve" text-anchor="start" x="616.73" y="-83.75" font-family="Helvetica,Arial,sans-serif" font-size="10.00" fill="#5b6770">varchar2(25)</text>
<text xml:space="preserve" text-anchor="start" x="544.23" y="-64.5" font-family="Helvetica,Arial,sans-serif" font-size="10.00" fill="#1f2933">country_id</text>
<text xml:space="preserve" text-anchor="start" x="616.73" y="-64.5" font-family="Helvetica,Arial,sans-serif" font-size="10.00" fill="#5b6770">char(2)</text>
<text xml:space="preserve" text-anchor="start" x="679.11" y="-64.45" font-family="Helvetica,Arial,sans-serif" font-weight="bold" font-size="9.00" fill="#2f4858">FK</text>
</g>
<!-- DEPARTMENTS&#45;&gt;LOCATIONS -->
<g id="edge2" class="edge">
<title>DEPARTMENTS:location_id&#45;&gt;LOCATIONS:location_id</title>
<path fill="none" stroke="#7d8b99" stroke-width="1.1" d="M309.04,-214.39C316.86,-124.4 429.87,-161.05 530.19,-163.27"/>
<polygon fill="#7d8b99" stroke="#7d8b99" stroke-width="1.1" points="309.04,-214.39 304.13,-224.2 308.82,-219.75 308.64,-224.01 308.64,-224.01 308.64,-224.01 308.82,-219.75 313.12,-224.57 309.04,-214.39"/>
<ellipse fill="none" stroke="#7d8b99" stroke-width="1.1" cx="534.68" cy="-163.32" rx="4" ry="4"/>
</g>
<!-- EMPLOYEES&#45;&gt;DEPARTMENTS -->
<g id="edge4" class="edge">
<title>EMPLOYEES:department_id&#45;&gt;DEPARTMENTS:department_id</title>
<path fill="none" stroke="#7d8b99" stroke-width="1.1" d="M525.85,-237.94C486.11,-246.09 501.37,-304.72 456.86,-324.5 379.18,-359.02 326.66,-383.64 265.61,-324.5 258.4,-317.52 253.83,-304.37 257.01,-297.52"/>
<polygon fill="#7d8b99" stroke="#7d8b99" stroke-width="1.1" points="525.54,-237.97 535.91,-241.51 530.88,-237.47 535.12,-237.07 535.12,-237.07 535.12,-237.07 530.88,-237.47 535.07,-232.55 525.54,-237.97"/>
<ellipse fill="none" stroke="#7d8b99" stroke-width="1.1" cx="260.67" cy="-295.4" rx="4" ry="4"/>
</g>
<!-- EMPLOYEES&#45;&gt;EMPLOYEES -->
<g id="edge6" class="edge">
<title>EMPLOYEES:manager_id&#45;&gt;EMPLOYEES:employee_id</title>
<path fill="none" stroke="#7d8b99" stroke-width="1.1" d="M554.12,-240.8C514.15,-210.31 521.61,-194.38 576.48,-194.38 634.4,-194.38 639.49,-348.59 591.76,-413.45"/>
<polygon fill="#7d8b99" stroke="#7d8b99" stroke-width="1.1" points="553.77,-240.54 559.18,-250.08 558.1,-243.71 561.54,-246.23 561.54,-246.23 561.54,-246.23 558.1,-243.71 564.5,-242.81 553.77,-240.54"/>
<ellipse fill="none" stroke="#7d8b99" stroke-width="1.1" cx="589.19" cy="-416.63" rx="4" ry="4"/>
</g>
<!-- JOBS -->
<g id="node4" class="node">
<title>JOBS</title>
<polygon fill="#ffffff" stroke="none" points="800.36,-343.75 800.36,-443.5 964.86,-443.5 964.86,-343.75 800.36,-343.75"/>
<polygon fill="none" stroke="#b8c2cc" points="800.36,-343.75 800.36,-443.5 964.86,-443.5 964.86,-343.75 800.36,-343.75"/>
<polygon fill="#2f4858" stroke="none" points="801.36,-421.75 801.36,-442.5 963.86,-442.5 963.86,-421.75 801.36,-421.75"/>
<text xml:space="preserve" text-anchor="start" x="866.11" y="-428.1" font-family="Helvetica,Arial,sans-serif" font-weight="bold" font-size="12.00" fill="white">JOBS</text>
<text xml:space="preserve" text-anchor="start" x="805.36" y="-409.25" font-family="Helvetica,Arial,sans-serif" font-weight="bold" font-size="10.00" fill="#1f2933">job_id</text>
<text xml:space="preserve" text-anchor="start" x="863.61" y="-409.5" font-family="Helvetica,Arial,sans-serif" font-size="10.00" fill="#5b6770">varchar2(10)</text>
<text xml:space="preserve" text-anchor="start" x="925.61" y="-409.45" font-family="Helvetica,Arial,sans-serif" font-weight="bold" font-size="9.00" fill="#2f4858">PK</text>
<text xml:space="preserve" text-anchor="start" x="805.36" y="-390.25" font-family="Helvetica,Arial,sans-serif" font-size="10.00" fill="#1f2933">job_title</text>
<text xml:space="preserve" text-anchor="start" x="863.61" y="-390.25" font-family="Helvetica,Arial,sans-serif" font-size="10.00" fill="#5b6770">varchar2(35)</text>
<text xml:space="preserve" text-anchor="start" x="946.36" y="-390.25" font-family="Helvetica,Arial,sans-serif" font-size="9.00" fill="#8b949e">NN</text>
<text xml:space="preserve" text-anchor="start" x="805.36" y="-371" font-family="Helvetica,Arial,sans-serif" font-size="10.00" fill="#1f2933">min_salary</text>
<text xml:space="preserve" text-anchor="start" x="863.61" y="-371" font-family="Helvetica,Arial,sans-serif" font-size="10.00" fill="#5b6770">number(6)</text>
<text xml:space="preserve" text-anchor="start" x="805.36" y="-351.75" font-family="Helvetica,Arial,sans-serif" font-size="10.00" fill="#1f2933">max_salary</text>
<text xml:space="preserve" text-anchor="start" x="863.61" y="-351.75" font-family="Helvetica,Arial,sans-serif" font-size="10.00" fill="#5b6770">number(6)</text>
</g>
<!-- EMPLOYEES&#45;&gt;JOBS -->
<g id="edge5" class="edge">
<title>EMPLOYEES:job_id&#45;&gt;JOBS:job_id</title>
<path fill="none" stroke="#7d8b99" stroke-width="1.1" d="M525.54,-312.23C499.56,-302.1 511.97,-250.98 536.86,-226.38 551.44,-211.96 704.26,-215.07 721.36,-226.38 794.87,-274.99 713.6,-407.36 795.79,-412"/>
<polygon fill="#7d8b99" stroke="#7d8b99" stroke-width="1.1" points="525.64,-312.25 534.74,-318.37 530.93,-313.16 535.13,-313.88 535.13,-313.88 535.13,-313.88 530.93,-313.16 536.25,-309.5 525.64,-312.25"/>
<polygon fill="#7d8b99" stroke="#7d8b99" stroke-width="1.1" points="799.49,-407.1 799.22,-417.1 797.22,-417.04 797.5,-407.04 799.49,-407.1"/>
<polyline fill="none" stroke="#7d8b99" stroke-width="1.1" points="800.36,-412.12 795.36,-411.99"/>
</g>
<!-- JOB_HISTORY -->
<g id="node5" class="node">
<title>JOB_HISTORY</title>
<polygon fill="#ffffff" stroke="none" points="9.11,-360.75 9.11,-460.5 185.61,-460.5 185.61,-360.75 9.11,-360.75"/>
<polygon fill="none" stroke="#b8c2cc" points="9.11,-360.75 9.11,-460.5 185.61,-460.5 185.61,-360.75 9.11,-360.75"/>
<polygon fill="#2f4858" stroke="none" points="10.11,-438.75 10.11,-459.5 184.61,-459.5 184.61,-438.75 10.11,-438.75"/>
<text xml:space="preserve" text-anchor="start" x="55.36" y="-445.1" font-family="Helvetica,Arial,sans-serif" font-weight="bold" font-size="12.00" fill="white">JOB_HISTORY</text>
<text xml:space="preserve" text-anchor="start" x="14.11" y="-426.25" font-family="Helvetica,Arial,sans-serif" font-weight="bold" font-size="10.00" fill="#1f2933">employee_id</text>
<text xml:space="preserve" text-anchor="start" x="83.61" y="-426.5" font-family="Helvetica,Arial,sans-serif" font-size="10.00" fill="#5b6770">number(6)</text>
<text xml:space="preserve" text-anchor="start" x="145.61" y="-426.45" font-family="Helvetica,Arial,sans-serif" font-weight="bold" font-size="9.00" fill="#2f4858">PK FK</text>
<text xml:space="preserve" text-anchor="start" x="14.11" y="-407" font-family="Helvetica,Arial,sans-serif" font-weight="bold" font-size="10.00" fill="#1f2933">start_date</text>
<text xml:space="preserve" text-anchor="start" x="83.61" y="-407.25" font-family="Helvetica,Arial,sans-serif" font-size="10.00" fill="#5b6770">date</text>
<text xml:space="preserve" text-anchor="start" x="152.73" y="-407.2" font-family="Helvetica,Arial,sans-serif" font-weight="bold" font-size="9.00" fill="#2f4858">PK</text>
<text xml:space="preserve" text-anchor="start" x="14.11" y="-388" font-family="Helvetica,Arial,sans-serif" font-size="10.00" fill="#1f2933">job_id</text>
<text xml:space="preserve" text-anchor="start" x="83.61" y="-388" font-family="Helvetica,Arial,sans-serif" font-size="10.00" fill="#5b6770">varchar2(10)</text>
<text xml:space="preserve" text-anchor="start" x="153.11" y="-387.95" font-family="Helvetica,Arial,sans-serif" font-weight="bold" font-size="9.00" fill="#2f4858">FK</text>
<text xml:space="preserve" text-anchor="start" x="14.11" y="-368.75" font-family="Helvetica,Arial,sans-serif" font-size="10.00" fill="#1f2933">department_id</text>
<text xml:space="preserve" text-anchor="start" x="83.61" y="-368.75" font-family="Helvetica,Arial,sans-serif" font-size="10.00" fill="#5b6770">number(4)</text>
<text xml:space="preserve" text-anchor="start" x="153.11" y="-368.7" font-family="Helvetica,Arial,sans-serif" font-weight="bold" font-size="9.00" fill="#2f4858">FK</text>
</g>
<!-- JOB_HISTORY&#45;&gt;DEPARTMENTS -->
<g id="edge7" class="edge">
<title>JOB_HISTORY:department_id&#45;&gt;DEPARTMENTS:department_id</title>
<path fill="none" stroke="#7d8b99" stroke-width="1.1" d="M45.29,-350.47C52.87,-263.66 159.27,-291.29 255.62,-293.04"/>
<polygon fill="#7d8b99" stroke="#7d8b99" stroke-width="1.1" points="45.29,-350.39 40.38,-360.19 45.07,-355.75 44.89,-360.01 44.89,-360.01 44.89,-360.01 45.07,-355.75 49.37,-360.57 45.29,-350.39"/>
<ellipse fill="none" stroke="#7d8b99" stroke-width="1.1" cx="260.06" cy="-293.08" rx="4" ry="4"/>
</g>
<!-- JOB_HISTORY&#45;&gt;EMPLOYEES -->
<g id="edge8" class="edge">
<title>JOB_HISTORY:employee_id&#45;&gt;EMPLOYEES:employee_id</title>
<path fill="none" stroke="#7d8b99" stroke-width="1.1" d="M0.85,-435.44C-0.85,-442.61 3.53,-454.13 10.11,-460.5 66.13,-514.77 107.68,-463.94 185.61,-460.5 340.05,-453.68 378.76,-430.02 530.86,-429.51"/>
<polygon fill="#7d8b99" stroke="#7d8b99" stroke-width="1.1" points="0.87,-435.43 11.55,-432.92 5.14,-432.16 8.52,-429.57 8.52,-429.57 8.52,-429.57 5.14,-432.16 6.08,-425.77 0.87,-435.43"/>
<polygon fill="#7d8b99" stroke="#7d8b99" stroke-width="1.1" points="534.85,-424.5 534.87,-434.5 532.87,-434.51 532.85,-424.51 534.85,-424.5"/>
<polyline fill="none" stroke="#7d8b99" stroke-width="1.1" points="535.86,-429.5 530.86,-429.51"/>
</g>
<!-- JOB_HISTORY&#45;&gt;JOBS -->
<g id="edge9" class="edge">
<title>JOB_HISTORY:job_id&#45;&gt;JOBS:job_id</title>
<path fill="none" stroke="#7d8b99" stroke-width="1.1" d="M1.15,-384.12C-0.15,-377.26 3.99,-366.67 10.11,-360.75 66.18,-306.53 116.04,-325.47 185.61,-360.75 238.61,-387.63 212.01,-440.97 264.61,-468.62 444.31,-563.12 530.11,-544.78 721.36,-476.62 762.55,-461.94 755.6,-415.55 795.77,-412.3"/>
<polygon fill="#7d8b99" stroke="#7d8b99" stroke-width="1.1" points="1.08,-384.06 5.97,-393.87 5.24,-387.46 8.54,-390.16 8.54,-390.16 8.54,-390.16 5.24,-387.46 11.67,-386.91 1.08,-384.06"/>
<polygon fill="#7d8b99" stroke="#7d8b99" stroke-width="1.1" points="799.16,-407.17 799.55,-417.16 797.55,-417.24 797.16,-407.25 799.16,-407.17"/>
<polyline fill="none" stroke="#7d8b99" stroke-width="1.1" points="800.36,-412.12 795.36,-412.32"/>
</g>
<!-- LOCATIONS&#45;&gt;COUNTRIES -->
<g id="edge10" class="edge">
<title>LOCATIONS:country_id&#45;&gt;COUNTRIES:country_id</title>
<path fill="none" stroke="#7d8b99" stroke-width="1.1" d="M576.99,-46.21C585.45,33.05 697.95,-61.43 792.67,-67.22"/>
<polygon fill="#7d8b99" stroke="#7d8b99" stroke-width="1.1" points="576.99,-46.14 572.01,-55.91 576.73,-51.51 576.52,-55.77 576.52,-55.77 576.52,-55.77 576.73,-51.51 580.99,-56.35 576.99,-46.14"/>
<ellipse fill="none" stroke="#7d8b99" stroke-width="1.1" cx="796.93" cy="-67.36" rx="4" ry="4"/>
</g>
</g>
</svg>
