<?xml version="1.0" encoding="UTF-8" standalone="no"?>
<!DOCTYPE svg PUBLIC "-//W3C//DTD SVG 1.1//EN"
 "http://www.w3.org/Graphics/SVG/1.1/DTD/svg11.dtd">
<!-- Generated by graphviz version 16.1.0 (20260904.0139)
 -->
<!-- Title: erd Pages: 1 -->
<!-- EMPLOYEES and its direct neighbours, as the hr module maps them. Generated by the erd skill; do not edit by hand. -->
<svg width="370pt" height="492pt"
 viewBox="0.00 0.00 370.00 492.00" xmlns="http://www.w3.org/2000/svg" xmlns:xlink="http://www.w3.org/1999/xlink">
<g id="graph0" class="graph" transform="scale(1 1) rotate(0) translate(21.6 470.37)">
<title>erd</title>
<polygon fill="white" stroke="none" points="-21.6,21.6 -21.6,-470.37 348.52,-470.37 348.52,21.6 -21.6,21.6"/>
<!-- EMPLOYEES -->
<g id="node1" class="node">
<title>EMPLOYEES</title>
<polygon fill="#ffffff" stroke="none" points="45.17,-131.77 45.17,-308.52 230.67,-308.52 230.67,-131.77 45.17,-131.77"/>
<polygon fill="none" stroke="#b8c2cc" points="45.17,-131.77 45.17,-308.52 230.67,-308.52 230.67,-131.77 45.17,-131.77"/>
<polygon fill="#8c4a3f" stroke="none" points="46.17,-286.77 46.17,-307.52 229.67,-307.52 229.67,-286.77 46.17,-286.77"/>
<text xml:space="preserve" text-anchor="start" x="100.05" y="-293.12" font-family="Helvetica,Arial,sans-serif" font-weight="bold" font-size="12.00" fill="white">EMPLOYEES</text>
<text xml:space="preserve" text-anchor="start" x="50.17" y="-274.27" font-family="Helvetica,Arial,sans-serif" font-weight="bold" font-size="10.00" fill="#1f2933">employee_id</text>
<text xml:space="preserve" text-anchor="start" x="129.42" y="-274.52" font-family="Helvetica,Arial,sans-serif" font-size="10.00" fill="#5b6770">number(6)</text>
<text xml:space="preserve" text-anchor="start" x="191.42" y="-274.47" font-family="Helvetica,Arial,sans-serif" font-weight="bold" font-size="9.00" fill="#8c4a3f">PK</text>
<text xml:space="preserve" text-anchor="start" x="50.17" y="-255.27" font-family="Helvetica,Arial,sans-serif" font-size="10.00" fill="#1f2933">first_name</text>
<text xml:space="preserve" text-anchor="start" x="129.42" y="-255.27" font-family="Helvetica,Arial,sans-serif" font-size="10.00" fill="#5b6770">varchar2(20)</text>
<text xml:space="preserve" text-anchor="start" x="50.17" y="-236.02" font-family="Helvetica,Arial,sans-serif" font-size="10.00" fill="#1f2933">last_name</text>
<text xml:space="preserve" text-anchor="start" x="129.42" y="-236.02" font-family="Helvetica,Arial,sans-serif" font-size="10.00" fill="#5b6770">varchar2(25)</text>
<text xml:space="preserve" text-anchor="start" x="212.17" y="-236.02" font-family="Helvetica,Arial,sans-serif" font-size="9.00" fill="#8b949e">NN</text>
<text xml:space="preserve" text-anchor="start" x="50.17" y="-216.77" font-family="Helvetica,Arial,sans-serif" font-size="10.00" fill="#1f2933">email</text>
<text xml:space="preserve" text-anchor="start" x="129.42" y="-216.77" font-family="Helvetica,Arial,sans-serif" font-size="10.00" fill="#5b6770">varchar2(25)</text>
<text xml:space="preserve" text-anchor="start" x="212.17" y="-216.77" font-family="Helvetica,Arial,sans-serif" font-size="9.00" fill="#8b949e">NN</text>
<text xml:space="preserve" text-anchor="start" x="50.17" y="-197.52" font-family="Helvetica,Arial,sans-serif" font-size="10.00" fill="#1f2933">phone_number</text>
<text xml:space="preserve" text-anchor="start" x="129.42" y="-197.52" font-family="Helvetica,Arial,sans-serif" font-size="10.00" fill="#5b6770">varchar2(20)</text>
<text xml:space="preserve" text-anchor="start" x="50.17" y="-178.27" font-family="Helvetica,Arial,sans-serif" font-size="10.00" fill="#1f2933">hire_date</text>
<text xml:space="preserve" text-anchor="start" x="129.42" y="-178.27" font-family="Helvetica,Arial,sans-serif" font-size="10.00" fill="#5b6770">date</text>
<text xml:space="preserve" text-anchor="start" x="212.17" y="-178.27" font-family="Helvetica,Arial,sans-serif" font-size="9.00" fill="#8b949e">NN</text>
<text xml:space="preserve" text-anchor="start" x="50.17" y="-159.02" font-family="Helvetica,Arial,sans-serif" font-size="10.00" fill="#1f2933">salary</text>
<text xml:space="preserve" text-anchor="start" x="129.42" y="-159.02" font-family="Helvetica,Arial,sans-serif" font-size="10.00" fill="#5b6770">number(8,2)</text>
<text xml:space="preserve" text-anchor="start" x="50.17" y="-139.77" font-family="Helvetica,Arial,sans-serif" font-size="10.00" fill="#1f2933">commission_pct</text>
<text xml:space="preserve" text-anchor="start" x="129.42" y="-139.77" font-family="Helvetica,Arial,sans-serif" font-size="10.00" fill="#5b6770">number(2,2)</text>
</g>
<!-- EMPLOYEES&#45;&gt;EMPLOYEES -->
<g id="edge4" class="edge">
<title>EMPLOYEES&#45;&gt;EMPLOYEES:employee_id</title>
<path fill="none" stroke="#7d8b99" stroke-width="1.1" d="M36.26,-197.2C22.41,-206.66 13.17,-223.46 13.17,-248.64 13.17,-314.8 36.95,-323.06 70.76,-292.52"/>
<polygon fill="#7d8b99" stroke="#7d8b99" stroke-width="1.1" points="36.31,-197.17 47.25,-196.39 41.04,-194.63 44.79,-192.6 44.79,-192.6 44.79,-192.6 41.04,-194.63 42.98,-188.47 36.31,-197.17"/>
<ellipse fill="none" stroke="#7d8b99" stroke-width="1.1" cx="73.9" cy="-289.51" rx="4" ry="4"/>
</g>
<!-- DEPARTMENTS -->
<g id="node2" class="node">
<title>DEPARTMENTS</title>
<polygon fill="#ffffff" stroke="none" points="7.42,-10.77 7.42,-52.77 164.42,-52.77 164.42,-10.77 7.42,-10.77"/>
<polygon fill="none" stroke="#b8c2cc" points="7.42,-10.77 7.42,-52.77 164.42,-52.77 164.42,-10.77 7.42,-10.77"/>
<polygon fill="#2f4858" stroke="none" points="8.42,-31.02 8.42,-51.77 163.42,-51.77 163.42,-31.02 8.42,-31.02"/>
<text xml:space="preserve" text-anchor="start" x="39.8" y="-37.37" font-family="Helvetica,Arial,sans-serif" font-weight="bold" font-size="12.00" fill="white">DEPARTMENTS</text>
<text xml:space="preserve" text-anchor="start" x="12.42" y="-18.52" font-family="Helvetica,Arial,sans-serif" font-weight="bold" font-size="10.00" fill="#1f2933">department_id</text>
<text xml:space="preserve" text-anchor="start" x="87.17" y="-18.77" font-family="Helvetica,Arial,sans-serif" font-size="10.00" fill="#5b6770">number(4)</text>
<text xml:space="preserve" text-anchor="start" x="138.67" y="-18.72" font-family="Helvetica,Arial,sans-serif" font-weight="bold" font-size="9.00" fill="#2f4858">PK</text>
</g>
<!-- EMPLOYEES&#45;&gt;DEPARTMENTS -->
<g id="edge2" class="edge">
<title>EMPLOYEES&#45;&gt;DEPARTMENTS:department_id</title>
<path fill="none" stroke="#7d8b99" stroke-width="1.1" d="M46.13,-123.81C30.25,-102.02 16.08,-77.84 7.42,-52.77 1.47,-35.54 -5.29,-24.82 7.42,-11.77 16.72,-2.22 34.91,3.43 42.43,-2.69"/>
<polygon fill="#7d8b99" stroke="#7d8b99" stroke-width="1.1" points="46.08,-123.74 48.47,-134.44 49.3,-128.03 51.85,-131.45 51.85,-131.45 51.85,-131.45 49.3,-128.03 55.68,-129.05 46.08,-123.74"/>
<ellipse fill="none" stroke="#7d8b99" stroke-width="1.1" cx="44.05" cy="-6.57" rx="4" ry="4"/>
</g>
<!-- JOBS -->
<g id="node3" class="node">
<title>JOBS</title>
<polygon fill="#ffffff" stroke="none" points="196.92,-10.77 196.92,-52.77 326.92,-52.77 326.92,-10.77 196.92,-10.77"/>
<polygon fill="none" stroke="#b8c2cc" points="196.92,-10.77 196.92,-52.77 326.92,-52.77 326.92,-10.77 196.92,-10.77"/>
<polygon fill="#2f4858" stroke="none" points="197.92,-31.02 197.92,-51.77 325.92,-51.77 325.92,-31.02 197.92,-31.02"/>
<text xml:space="preserve" text-anchor="start" x="245.42" y="-37.37" font-family="Helvetica,Arial,sans-serif" font-weight="bold" font-size="12.00" fill="white">JOBS</text>
<text xml:space="preserve" text-anchor="start" x="201.92" y="-18.52" font-family="Helvetica,Arial,sans-serif" font-weight="bold" font-size="10.00" fill="#1f2933">job_id</text>
<text xml:space="preserve" text-anchor="start" x="239.17" y="-18.77" font-family="Helvetica,Arial,sans-serif" font-size="10.00" fill="#5b6770">varchar2(10)</text>
<text xml:space="preserve" text-anchor="start" x="301.17" y="-18.72" font-family="Helvetica,Arial,sans-serif" font-weight="bold" font-size="9.00" fill="#2f4858">PK</text>
</g>
<!-- EMPLOYEES&#45;&gt;JOBS -->
<g id="edge3" class="edge">
<title>EMPLOYEES&#45;&gt;JOBS:job_id</title>
<path fill="none" stroke="#7d8b99" stroke-width="1.1" d="M162.69,-121.86C174.02,-79.7 186.48,-37.16 193.57,-24.9"/>
<polygon fill="#7d8b99" stroke="#7d8b99" stroke-width="1.1" points="162.71,-121.81 155.78,-130.32 161.32,-127 160.22,-131.12 160.22,-131.12 160.22,-131.12 161.32,-127 164.48,-132.64 162.71,-121.81"/>
<polygon fill="#7d8b99" stroke="#7d8b99" stroke-width="1.1" points="192.62,-18.66 199.85,-25.57 198.46,-27.02 191.23,-20.11 192.62,-18.66"/>
<polyline fill="none" stroke="#7d8b99" stroke-width="1.1" points="196.92,-21.39 193.47,-25.01"/>
</g>
<!-- DEPARTMENTS&#45;&gt;EMPLOYEES -->
<g id="edge1" class="edge">
<title>DEPARTMENTS&#45;&gt;EMPLOYEES:employee_id</title>
<path fill="none" stroke="#7d8b99" stroke-width="1.1" d="M69.15,-61.7C34.52,-124.02 -35.86,-266.14 36.25,-276.54"/>
<polygon fill="#7d8b99" stroke="#7d8b99" stroke-width="1.1" points="69.09,-61.8 77.92,-55.29 71.72,-57.12 73.81,-53.41 73.81,-53.41 73.81,-53.41 71.72,-57.12 70.07,-50.88 69.09,-61.8"/>
<ellipse fill="none" stroke="#7d8b99" stroke-width="1.1" cx="40.63" cy="-276.84" rx="4" ry="4"/>
</g>
<!-- JOB_HISTORY -->
<g id="node4" class="node">
<title>JOB_HISTORY</title>
<polygon fill="#ffffff" stroke="none" points="52.05,-387.52 52.05,-448.77 215.8,-448.77 215.8,-387.52 52.05,-387.52"/>
<polygon fill="none" stroke="#b8c2cc" points="52.05,-387.52 52.05,-448.77 215.8,-448.77 215.8,-387.52 52.05,-387.52"/>
<polygon fill="#2f4858" stroke="none" points="53.05,-427.02 53.05,-447.77 214.8,-447.77 214.8,-427.02 53.05,-427.02"/>
<text xml:space="preserve" text-anchor="start" x="91.92" y="-433.37" font-family="Helvetica,Arial,sans-serif" font-weight="bold" font-size="12.00" fill="white">JOB_HISTORY</text>
<text xml:space="preserve" text-anchor="start" x="57.05" y="-414.52" font-family="Helvetica,Arial,sans-serif" font-weight="bold" font-size="10.00" fill="#1f2933">employee_id</text>
<text xml:space="preserve" text-anchor="start" x="124.3" y="-414.77" font-family="Helvetica,Arial,sans-serif" font-size="10.00" fill="#5b6770">number(6)</text>
<text xml:space="preserve" text-anchor="start" x="175.8" y="-414.72" font-family="Helvetica,Arial,sans-serif" font-weight="bold" font-size="9.00" fill="#2f4858">PK FK</text>
<text xml:space="preserve" text-anchor="start" x="57.05" y="-395.27" font-family="Helvetica,Arial,sans-serif" font-weight="bold" font-size="10.00" fill="#1f2933">start_date</text>
<text xml:space="preserve" text-anchor="start" x="124.3" y="-395.52" font-family="Helvetica,Arial,sans-serif" font-size="10.00" fill="#5b6770">date</text>
<text xml:space="preserve" text-anchor="start" x="182.92" y="-395.47" font-family="Helvetica,Arial,sans-serif" font-weight="bold" font-size="9.00" fill="#2f4858">PK</text>
</g>
<!-- JOB_HISTORY&#45;&gt;EMPLOYEES -->
<g id="edge5" class="edge">
<title>JOB_HISTORY:employee_id&#45;&gt;EMPLOYEES:employee_id</title>
<path fill="none" stroke="#7d8b99" stroke-width="1.1" d="M41.98,-416.09C-9.47,-402.34 -13.51,-283.89 40.48,-277.42"/>
<polygon fill="#7d8b99" stroke="#7d8b99" stroke-width="1.1" points="41.76,-416.07 51.11,-421.81 47.09,-416.75 51.32,-417.3 51.32,-417.3 51.32,-417.3 47.09,-416.75 52.26,-412.88 41.76,-416.07"/>
<polygon fill="#7d8b99" stroke="#7d8b99" stroke-width="1.1" points="43.88,-272.21 44.47,-282.19 42.47,-282.31 41.88,-272.33 43.88,-272.21"/>
<polyline fill="none" stroke="#7d8b99" stroke-width="1.1" points="45.17,-277.14 40.18,-277.44"/>
</g>
</g>
</svg>
