<?xml version="1.0" encoding="UTF-8" standalone="no"?>
<!DOCTYPE svg PUBLIC "-//W3C//DTD SVG 1.1//EN"
 "http://www.w3.org/Graphics/SVG/1.1/DTD/svg11.dtd">
<!-- Generated by graphviz version 16.1.0 (20260904.0139)
 -->
<!-- Title: erd Pages: 1 -->
<!-- the EMPLOYEES table and its direct neighbours, as the hr module maps them. Generated by the erd skill; do not edit by hand. -->
<svg width="561pt" height="507pt"
 viewBox="0.00 0.00 561.00 507.00" xmlns="http://www.w3.org/2000/svg" xmlns:xlink="http://www.w3.org/1999/xlink">
<g id="graph0" class="graph" transform="scale(1 1) rotate(0) translate(21.6 485.89)">
<title>erd</title>
<polygon fill="white" stroke="none" points="-21.6,21.6 -21.6,-485.89 539.65,-485.89 539.65,21.6 -21.6,21.6"/>
<!-- EMPLOYEES -->
<g id="node1" class="node">
<title>EMPLOYEES</title>
<polygon fill="#ffffff" stroke="none" points="116.3,-147.29 116.3,-324.04 301.8,-324.04 301.8,-147.29 116.3,-147.29"/>
<polygon fill="none" stroke="#b8c2cc" points="116.3,-147.29 116.3,-324.04 301.8,-324.04 301.8,-147.29 116.3,-147.29"/>
<polygon fill="#8c4a3f" stroke="none" points="117.3,-302.29 117.3,-323.04 300.8,-323.04 300.8,-302.29 117.3,-302.29"/>
<text xml:space="preserve" text-anchor="start" x="171.17" y="-308.64" font-family="Helvetica,Arial,sans-serif" font-weight="bold" font-size="12.00" fill="white">EMPLOYEES</text>
<text xml:space="preserve" text-anchor="start" x="121.3" y="-289.79" font-family="Helvetica,Arial,sans-serif" font-weight="bold" font-size="10.00" fill="#1f2933">employee_id</text>
<text xml:space="preserve" text-anchor="start" x="200.55" y="-290.04" font-family="Helvetica,Arial,sans-serif" font-size="10.00" fill="#5b6770">number(6)</text>
<text xml:space="preserve" text-anchor="start" x="262.55" y="-289.99" font-family="Helvetica,Arial,sans-serif" font-weight="bold" font-size="9.00" fill="#8c4a3f">PK</text>
<text xml:space="preserve" text-anchor="start" x="121.3" y="-270.79" font-family="Helvetica,Arial,sans-serif" font-size="10.00" fill="#1f2933">first_name</text>
<text xml:space="preserve" text-anchor="start" x="200.55" y="-270.79" font-family="Helvetica,Arial,sans-serif" font-size="10.00" fill="#5b6770">varchar2(20)</text>
<text xml:space="preserve" text-anchor="start" x="121.3" y="-251.54" font-family="Helvetica,Arial,sans-serif" font-size="10.00" fill="#1f2933">last_name</text>
<text xml:space="preserve" text-anchor="start" x="200.55" y="-251.54" font-family="Helvetica,Arial,sans-serif" font-size="10.00" fill="#5b6770">varchar2(25)</text>
<text xml:space="preserve" text-anchor="start" x="283.3" y="-251.54" font-family="Helvetica,Arial,sans-serif" font-size="9.00" fill="#8b949e">NN</text>
<text xml:space="preserve" text-anchor="start" x="121.3" y="-232.29" font-family="Helvetica,Arial,sans-serif" font-size="10.00" fill="#1f2933">email</text>
<text xml:space="preserve" text-anchor="start" x="200.55" y="-232.29" font-family="Helvetica,Arial,sans-serif" font-size="10.00" fill="#5b6770">varchar2(25)</text>
<text xml:space="preserve" text-anchor="start" x="283.3" y="-232.29" font-family="Helvetica,Arial,sans-serif" font-size="9.00" fill="#8b949e">NN</text>
<text xml:space="preserve" text-anchor="start" x="121.3" y="-213.04" font-family="Helvetica,Arial,sans-serif" font-size="10.00" fill="#1f2933">phone_number</text>
<text xml:space="preserve" text-anchor="start" x="200.55" y="-213.04" font-family="Helvetica,Arial,sans-serif" font-size="10.00" fill="#5b6770">varchar2(20)</text>
<text xml:space="preserve" text-anchor="start" x="121.3" y="-193.79" font-family="Helvetica,Arial,sans-serif" font-size="10.00" fill="#1f2933">hire_date</text>
<text xml:space="preserve" text-anchor="start" x="200.55" y="-193.79" font-family="Helvetica,Arial,sans-serif" font-size="10.00" fill="#5b6770">date</text>
<text xml:space="preserve" text-anchor="start" x="283.3" y="-193.79" font-family="Helvetica,Arial,sans-serif" font-size="9.00" fill="#8b949e">NN</text>
<text xml:space="preserve" text-anchor="start" x="121.3" y="-174.54" font-family="Helvetica,Arial,sans-serif" font-size="10.00" fill="#1f2933">salary</text>
<text xml:space="preserve" text-anchor="start" x="200.55" y="-174.54" font-family="Helvetica,Arial,sans-serif" font-size="10.00" fill="#5b6770">number(8,2)</text>
<text xml:space="preserve" text-anchor="start" x="121.3" y="-155.29" font-family="Helvetica,Arial,sans-serif" font-size="10.00" fill="#1f2933">commission_pct</text>
<text xml:space="preserve" text-anchor="start" x="200.55" y="-155.29" font-family="Helvetica,Arial,sans-serif" font-size="10.00" fill="#5b6770">number(2,2)</text>
</g>
<!-- EMPLOYEES&#45;&gt;EMPLOYEES -->
<g id="edge4" class="edge">
<title>EMPLOYEES&#45;&gt;EMPLOYEES:employee_id</title>
<path fill="none" stroke="#7d8b99" stroke-width="1.1" d="M107.38,-212.73C93.53,-222.19 84.3,-238.98 84.3,-264.17 84.3,-330.33 108.08,-338.58 141.89,-308.04"/>
<polygon fill="#7d8b99" stroke="#7d8b99" stroke-width="1.1" points="107.44,-212.7 118.38,-211.91 112.16,-210.15 115.92,-208.13 115.92,-208.13 115.92,-208.13 112.16,-210.15 114.1,-203.99 107.44,-212.7"/>
<ellipse fill="none" stroke="#7d8b99" stroke-width="1.1" cx="145.03" cy="-305.04" rx="4" ry="4"/>
</g>
<!-- DEPARTMENTS -->
<g id="node2" class="node">
<title>DEPARTMENTS</title>
<polygon fill="#ffffff" stroke="none" points="10.55,-26.29 10.55,-68.29 167.55,-68.29 167.55,-26.29 10.55,-26.29"/>
<polygon fill="none" stroke="#b8c2cc" points="10.55,-26.29 10.55,-68.29 167.55,-68.29 167.55,-26.29 10.55,-26.29"/>
<polygon fill="#2f4858" stroke="none" points="11.55,-46.54 11.55,-67.29 166.55,-67.29 166.55,-46.54 11.55,-46.54"/>
<text xml:space="preserve" text-anchor="start" x="42.92" y="-52.89" font-family="Helvetica,Arial,sans-serif" font-weight="bold" font-size="12.00" fill="white">DEPARTMENTS</text>
<text xml:space="preserve" text-anchor="start" x="15.55" y="-34.04" font-family="Helvetica,Arial,sans-serif" font-weight="bold" font-size="10.00" fill="#1f2933">department_id</text>
<text xml:space="preserve" text-anchor="start" x="90.3" y="-34.29" font-family="Helvetica,Arial,sans-serif" font-size="10.00" fill="#5b6770">number(4)</text>
<text xml:space="preserve" text-anchor="start" x="141.8" y="-34.24" font-family="Helvetica,Arial,sans-serif" font-weight="bold" font-size="9.00" fill="#2f4858">PK</text>
</g>
<!-- EMPLOYEES&#45;&gt;DEPARTMENTS -->
<g id="edge2" class="edge">
<title>EMPLOYEES&#45;&gt;DEPARTMENTS:department_id</title>
<path fill="none" stroke="#7d8b99" stroke-width="1.1" d="M108.36,-177.03C70.34,-149.46 31.27,-112.71 10.55,-68.29 -23.61,4.91 37.83,14.25 47.63,-17.38"/>
<polygon fill="#7d8b99" stroke="#7d8b99" stroke-width="1.1" points="108,-176.77 113.55,-186.23 112.38,-179.87 115.85,-182.34 115.85,-182.34 115.85,-182.34 112.38,-179.87 118.76,-178.89 108,-176.77"/>
<ellipse fill="none" stroke="#7d8b99" stroke-width="1.1" cx="48.27" cy="-21.79" rx="4" ry="4"/>
</g>
<!-- EMP_DETAILS_VIEW -->
<g id="node3" class="node">
<title>EMP_DETAILS_VIEW</title>
<path fill="#ffffff" stroke="none" d="M211.92,-26.29C211.92,-26.29 344.17,-26.29 344.17,-26.29 350.17,-26.29 356.17,-32.29 356.17,-38.29 356.17,-38.29 356.17,-56.29 356.17,-56.29 356.17,-62.29 350.17,-68.29 344.17,-68.29 344.17,-68.29 211.92,-68.29 211.92,-68.29 205.92,-68.29 199.92,-62.29 199.92,-56.29 199.92,-56.29 199.92,-38.29 199.92,-38.29 199.92,-32.29 205.92,-26.29 211.92,-26.29"/>
<path fill="none" stroke="#b8c2cc" d="M211.92,-26.29C211.92,-26.29 344.17,-26.29 344.17,-26.29 350.17,-26.29 356.17,-32.29 356.17,-38.29 356.17,-38.29 356.17,-56.29 356.17,-56.29 356.17,-62.29 350.17,-68.29 344.17,-68.29 344.17,-68.29 211.92,-68.29 211.92,-68.29 205.92,-68.29 199.92,-62.29 199.92,-56.29 199.92,-56.29 199.92,-38.29 199.92,-38.29 199.92,-32.29 205.92,-26.29 211.92,-26.29"/>
<polygon fill="#5a7078" stroke="none" points="200.92,-46.54 200.92,-67.29 355.17,-67.29 355.17,-46.54 200.92,-46.54"/>
<text xml:space="preserve" text-anchor="start" x="204.92" y="-52.89" font-family="Helvetica,Arial,sans-serif" font-weight="bold" font-size="12.00" fill="white">EMP_DETAILS_VIEW</text>
<text xml:space="preserve" text-anchor="start" x="326.42" y="-52.89" font-family="Helvetica,Arial,sans-serif" font-size="8.00" fill="#eef2f5">  VIEW</text>
<text xml:space="preserve" text-anchor="start" x="204.92" y="-34.04" font-family="Helvetica,Arial,sans-serif" font-weight="bold" font-size="10.00" fill="#1f2933">employee_id</text>
<text xml:space="preserve" text-anchor="start" x="274.8" y="-34.29" font-family="Helvetica,Arial,sans-serif" font-size="10.00" fill="#5b6770">number(6)</text>
<text xml:space="preserve" text-anchor="start" x="330.24" y="-34.24" font-family="Helvetica,Arial,sans-serif" font-weight="bold" font-size="9.00" fill="#5a7078">ID</text>
</g>
<!-- EMPLOYEES&#45;&gt;EMP_DETAILS_VIEW -->
<g id="edge6" class="edge">
<title>EMPLOYEES&#45;&gt;EMP_DETAILS_VIEW</title>
<path fill="none" stroke="#a9b4bf" stroke-dasharray="5,2" d="M241.33,-147.48C250.83,-121.8 260.57,-95.51 267.62,-76.45"/>
<polygon fill="#a9b4bf" stroke="#a9b4bf" points="270.34,-69.12 270.94,-77.87 269.37,-71.73 267.56,-76.62 267.56,-76.62 267.56,-76.62 269.37,-71.73 264.19,-75.37 270.34,-69.12"/>
</g>
<!-- JOBS -->
<g id="node4" class="node">
<title>JOBS</title>
<polygon fill="#ffffff" stroke="none" points="388.05,-26.29 388.05,-68.29 518.05,-68.29 518.05,-26.29 388.05,-26.29"/>
<polygon fill="none" stroke="#b8c2cc" points="388.05,-26.29 388.05,-68.29 518.05,-68.29 518.05,-26.29 388.05,-26.29"/>
<polygon fill="#2f4858" stroke="none" points="389.05,-46.54 389.05,-67.29 517.05,-67.29 517.05,-46.54 389.05,-46.54"/>
<text xml:space="preserve" text-anchor="start" x="436.55" y="-52.89" font-family="Helvetica,Arial,sans-serif" font-weight="bold" font-size="12.00" fill="white">JOBS</text>
<text xml:space="preserve" text-anchor="start" x="393.05" y="-34.04" font-family="Helvetica,Arial,sans-serif" font-weight="bold" font-size="10.00" fill="#1f2933">job_id</text>
<text xml:space="preserve" text-anchor="start" x="430.3" y="-34.29" font-family="Helvetica,Arial,sans-serif" font-size="10.00" fill="#5b6770">varchar2(10)</text>
<text xml:space="preserve" text-anchor="start" x="492.3" y="-34.24" font-family="Helvetica,Arial,sans-serif" font-weight="bold" font-size="9.00" fill="#2f4858">PK</text>
</g>
<!-- EMPLOYEES&#45;&gt;JOBS -->
<g id="edge3" class="edge">
<title>EMPLOYEES&#45;&gt;JOBS:job_id</title>
<path fill="none" stroke="#7d8b99" stroke-width="1.1" d="M308.74,-142.8C331.02,-119.68 353.52,-94.07 372.05,-68.29 380.05,-57.17 374.31,-41.49 383.24,-37.74"/>
<polygon fill="#7d8b99" stroke="#7d8b99" stroke-width="1.1" points="308.75,-142.79 298.55,-146.82 305.01,-146.64 302.03,-149.69 302.03,-149.69 302.03,-149.69 305.01,-146.64 305,-153.1 308.75,-142.79"/>
<polygon fill="#7d8b99" stroke="#7d8b99" stroke-width="1.1" points="386.22,-32.16 387.91,-42.01 385.94,-42.35 384.25,-32.5 386.22,-32.16"/>
<polyline fill="none" stroke="#7d8b99" stroke-width="1.1" points="388.05,-36.92 383.12,-37.77"/>
</g>
<!-- DEPARTMENTS&#45;&gt;EMPLOYEES -->
<g id="edge1" class="edge">
<title>DEPARTMENTS&#45;&gt;EMPLOYEES:employee_id</title>
<path fill="none" stroke="#7d8b99" stroke-width="1.1" d="M80.21,-78C63.06,-140.71 33.13,-281.7 107.27,-292.06"/>
<polygon fill="#7d8b99" stroke="#7d8b99" stroke-width="1.1" points="80.13,-78.27 87.16,-69.86 81.58,-73.1 82.73,-69 82.73,-69 82.73,-69 81.58,-73.1 78.5,-67.43 80.13,-78.27"/>
<ellipse fill="none" stroke="#7d8b99" stroke-width="1.1" cx="111.76" cy="-292.36" rx="4" ry="4"/>
</g>
<!-- JOB_HISTORY -->
<g id="node5" class="node">
<title>JOB_HISTORY</title>
<polygon fill="#ffffff" stroke="none" points="123.17,-403.04 123.17,-464.29 286.92,-464.29 286.92,-403.04 123.17,-403.04"/>
<polygon fill="none" stroke="#b8c2cc" points="123.17,-403.04 123.17,-464.29 286.92,-464.29 286.92,-403.04 123.17,-403.04"/>
<polygon fill="#2f4858" stroke="none" points="124.17,-442.54 124.17,-463.29 285.92,-463.29 285.92,-442.54 124.17,-442.54"/>
<text xml:space="preserve" text-anchor="start" x="163.05" y="-448.89" font-family="Helvetica,Arial,sans-serif" font-weight="bold" font-size="12.00" fill="white">JOB_HISTORY</text>
<text xml:space="preserve" text-anchor="start" x="128.17" y="-430.04" font-family="Helvetica,Arial,sans-serif" font-weight="bold" font-size="10.00" fill="#1f2933">employee_id</text>
<text xml:space="preserve" text-anchor="start" x="195.42" y="-430.29" font-family="Helvetica,Arial,sans-serif" font-size="10.00" fill="#5b6770">number(6)</text>
<text xml:space="preserve" text-anchor="start" x="246.92" y="-430.24" font-family="Helvetica,Arial,sans-serif" font-weight="bold" font-size="9.00" fill="#2f4858">PK FK</text>
<text xml:space="preserve" text-anchor="start" x="128.17" y="-410.79" font-family="Helvetica,Arial,sans-serif" font-weight="bold" font-size="10.00" fill="#1f2933">start_date</text>
<text xml:space="preserve" text-anchor="start" x="195.42" y="-411.04" font-family="Helvetica,Arial,sans-serif" font-size="10.00" fill="#5b6770">date</text>
<text xml:space="preserve" text-anchor="start" x="254.05" y="-410.99" font-family="Helvetica,Arial,sans-serif" font-weight="bold" font-size="9.00" fill="#2f4858">PK</text>
</g>
<!-- JOB_HISTORY&#45;&gt;EMPLOYEES -->
<g id="edge5" class="edge">
<title>JOB_HISTORY:employee_id&#45;&gt;EMPLOYEES:employee_id</title>
<path fill="none" stroke="#7d8b99" stroke-width="1.1" d="M113.11,-431.62C61.66,-417.87 57.62,-299.41 111.61,-292.94"/>
<polygon fill="#7d8b99" stroke="#7d8b99" stroke-width="1.1" points="112.89,-431.59 122.23,-437.33 118.22,-432.28 122.44,-432.82 122.44,-432.82 122.44,-432.82 118.22,-432.28 123.39,-428.41 112.89,-431.59"/>
<polygon fill="#7d8b99" stroke="#7d8b99" stroke-width="1.1" points="115.01,-287.73 115.59,-297.72 113.6,-297.83 113.01,-287.85 115.01,-287.73"/>
<polyline fill="none" stroke="#7d8b99" stroke-width="1.1" points="116.3,-292.67 111.31,-292.96"/>
</g>
</g>
</svg>
