<?xml version="1.0" encoding="UTF-8" standalone="no"?>
<!DOCTYPE svg PUBLIC "-//W3C//DTD SVG 1.1//EN"
 "http://www.w3.org/Graphics/SVG/1.1/DTD/svg11.dtd">
<!-- Generated by graphviz version 16.1.0 (20260904.0139)
 -->
<!-- Title: erd Pages: 1 -->
<!-- JOBS and its direct neighbours, as the hr module maps them. Generated by the erd skill; do not edit by hand. -->
<svg width="477pt" height="292pt"
 viewBox="0.00 0.00 477.00 292.00" xmlns="http://www.w3.org/2000/svg" xmlns:xlink="http://www.w3.org/1999/xlink">
<g id="graph0" class="graph" transform="scale(1 1) rotate(0) translate(21.6 270.66)">
<title>erd</title>
<polygon fill="white" stroke="none" points="-21.6,21.6 -21.6,-270.66 454.92,-270.66 454.92,21.6 -21.6,21.6"/>
<!-- JOBS -->
<g id="node1" class="node">
<title>JOBS</title>
<polygon fill="#ffffff" stroke="none" points="268.82,-54.31 268.82,-154.06 433.32,-154.06 433.32,-54.31 268.82,-54.31"/>
<polygon fill="none" stroke="#b8c2cc" points="268.82,-54.31 268.82,-154.06 433.32,-154.06 433.32,-54.31 268.82,-54.31"/>
<polygon fill="#8c4a3f" stroke="none" points="269.82,-132.31 269.82,-153.06 432.32,-153.06 432.32,-132.31 269.82,-132.31"/>
<text xml:space="preserve" text-anchor="start" x="334.57" y="-138.66" font-family="Helvetica,Arial,sans-serif" font-weight="bold" font-size="12.00" fill="white">JOBS</text>
<text xml:space="preserve" text-anchor="start" x="273.82" y="-119.81" font-family="Helvetica,Arial,sans-serif" font-weight="bold" font-size="10.00" fill="#1f2933">job_id</text>
<text xml:space="preserve" text-anchor="start" x="332.07" y="-120.06" font-family="Helvetica,Arial,sans-serif" font-size="10.00" fill="#5b6770">varchar2(10)</text>
<text xml:space="preserve" text-anchor="start" x="394.07" y="-120.01" font-family="Helvetica,Arial,sans-serif" font-weight="bold" font-size="9.00" fill="#8c4a3f">PK</text>
<text xml:space="preserve" text-anchor="start" x="273.82" y="-100.81" font-family="Helvetica,Arial,sans-serif" font-size="10.00" fill="#1f2933">job_title</text>
<text xml:space="preserve" text-anchor="start" x="332.07" y="-100.81" font-family="Helvetica,Arial,sans-serif" font-size="10.00" fill="#5b6770">varchar2(35)</text>
<text xml:space="preserve" text-anchor="start" x="414.82" y="-100.81" font-family="Helvetica,Arial,sans-serif" font-size="9.00" fill="#8b949e">NN</text>
<text xml:space="preserve" text-anchor="start" x="273.82" y="-81.56" font-family="Helvetica,Arial,sans-serif" font-size="10.00" fill="#1f2933">min_salary</text>
<text xml:space="preserve" text-anchor="start" x="332.07" y="-81.56" font-family="Helvetica,Arial,sans-serif" font-size="10.00" fill="#5b6770">number(6)</text>
<text xml:space="preserve" text-anchor="start" x="273.82" y="-62.31" font-family="Helvetica,Arial,sans-serif" font-size="10.00" fill="#1f2933">max_salary</text>
<text xml:space="preserve" text-anchor="start" x="332.07" y="-62.31" font-family="Helvetica,Arial,sans-serif" font-size="10.00" fill="#5b6770">number(6)</text>
</g>
<!-- EMPLOYEES -->
<g id="node2" class="node">
<title>EMPLOYEES</title>
<polygon fill="#ffffff" stroke="none" points="13.69,-149.31 13.69,-249.06 189.44,-249.06 189.44,-149.31 13.69,-149.31"/>
<polygon fill="none" stroke="#b8c2cc" points="13.69,-149.31 13.69,-249.06 189.44,-249.06 189.44,-149.31 13.69,-149.31"/>
<polygon fill="#2f4858" stroke="none" points="14.69,-227.31 14.69,-248.06 188.44,-248.06 188.44,-227.31 14.69,-227.31"/>
<text xml:space="preserve" text-anchor="start" x="63.69" y="-233.66" font-family="Helvetica,Arial,sans-serif" font-weight="bold" font-size="12.00" fill="white">EMPLOYEES</text>
<text xml:space="preserve" text-anchor="start" x="18.69" y="-214.81" font-family="Helvetica,Arial,sans-serif" font-weight="bold" font-size="10.00" fill="#1f2933">employee_id</text>
<text xml:space="preserve" text-anchor="start" x="88.19" y="-215.06" font-family="Helvetica,Arial,sans-serif" font-size="10.00" fill="#5b6770">number(6)</text>
<text xml:space="preserve" text-anchor="start" x="150.19" y="-215.01" font-family="Helvetica,Arial,sans-serif" font-weight="bold" font-size="9.00" fill="#2f4858">PK</text>
<text xml:space="preserve" text-anchor="start" x="18.69" y="-195.81" font-family="Helvetica,Arial,sans-serif" font-size="10.00" fill="#1f2933">job_id</text>
<text xml:space="preserve" text-anchor="start" x="88.19" y="-195.81" font-family="Helvetica,Arial,sans-serif" font-size="10.00" fill="#5b6770">varchar2(10)</text>
<text xml:space="preserve" text-anchor="start" x="150.57" y="-195.76" font-family="Helvetica,Arial,sans-serif" font-weight="bold" font-size="9.00" fill="#2f4858">FK</text>
<text xml:space="preserve" text-anchor="start" x="170.94" y="-195.81" font-family="Helvetica,Arial,sans-serif" font-size="9.00" fill="#8b949e">NN</text>
<text xml:space="preserve" text-anchor="start" x="18.69" y="-176.56" font-family="Helvetica,Arial,sans-serif" font-size="10.00" fill="#1f2933">manager_id</text>
<text xml:space="preserve" text-anchor="start" x="88.19" y="-176.56" font-family="Helvetica,Arial,sans-serif" font-size="10.00" fill="#5b6770">number(6)</text>
<text xml:space="preserve" text-anchor="start" x="150.57" y="-176.51" font-family="Helvetica,Arial,sans-serif" font-weight="bold" font-size="9.00" fill="#2f4858">FK</text>
<text xml:space="preserve" text-anchor="start" x="18.69" y="-157.31" font-family="Helvetica,Arial,sans-serif" font-size="10.00" fill="#1f2933">department_id</text>
<text xml:space="preserve" text-anchor="start" x="88.19" y="-157.31" font-family="Helvetica,Arial,sans-serif" font-size="10.00" fill="#5b6770">number(4)</text>
<text xml:space="preserve" text-anchor="start" x="150.57" y="-157.26" font-family="Helvetica,Arial,sans-serif" font-weight="bold" font-size="9.00" fill="#2f4858">FK</text>
</g>
<!-- EMPLOYEES&#45;&gt;JOBS -->
<g id="edge1" class="edge">
<title>EMPLOYEES:job_id&#45;&gt;JOBS:job_id</title>
<path fill="none" stroke="#7d8b99" stroke-width="1.1" d="M3.88,-194.76C-4.63,-185.68 2.83,-162.05 14.69,-149.31 28.01,-135.01 170.4,-135.37 189.82,-133.19 223.36,-129.42 232.55,-123.3 264.01,-122.73"/>
<polygon fill="#7d8b99" stroke="#7d8b99" stroke-width="1.1" points="3.98,-194.8 11.77,-202.52 9.01,-196.68 13,-198.18 13,-198.18 13,-198.18 9.01,-196.68 14.93,-194.1 3.98,-194.8"/>
<polygon fill="#7d8b99" stroke="#7d8b99" stroke-width="1.1" points="267.77,-117.7 267.86,-127.7 265.86,-127.71 265.77,-117.71 267.77,-117.7"/>
<polyline fill="none" stroke="#7d8b99" stroke-width="1.1" points="268.82,-122.69 263.82,-122.73"/>
</g>
<!-- JOB_HISTORY -->
<g id="node3" class="node">
<title>JOB_HISTORY</title>
<polygon fill="#ffffff" stroke="none" points="13.32,-17.31 13.32,-117.06 189.82,-117.06 189.82,-17.31 13.32,-17.31"/>
<polygon fill="none" stroke="#b8c2cc" points="13.32,-17.31 13.32,-117.06 189.82,-117.06 189.82,-17.31 13.32,-17.31"/>
<polygon fill="#2f4858" stroke="none" points="14.32,-95.31 14.32,-116.06 188.82,-116.06 188.82,-95.31 14.32,-95.31"/>
<text xml:space="preserve" text-anchor="start" x="59.57" y="-101.66" font-family="Helvetica,Arial,sans-serif" font-weight="bold" font-size="12.00" fill="white">JOB_HISTORY</text>
<text xml:space="preserve" text-anchor="start" x="18.32" y="-82.81" font-family="Helvetica,Arial,sans-serif" font-weight="bold" font-size="10.00" fill="#1f2933">employee_id</text>
<text xml:space="preserve" text-anchor="start" x="87.82" y="-83.06" font-family="Helvetica,Arial,sans-serif" font-size="10.00" fill="#5b6770">number(6)</text>
<text xml:space="preserve" text-anchor="start" x="149.82" y="-83.01" font-family="Helvetica,Arial,sans-serif" font-weight="bold" font-size="9.00" fill="#2f4858">PK FK</text>
<text xml:space="preserve" text-anchor="start" x="18.32" y="-63.56" font-family="Helvetica,Arial,sans-serif" font-weight="bold" font-size="10.00" fill="#1f2933">start_date</text>
<text xml:space="preserve" text-anchor="start" x="87.82" y="-63.81" font-family="Helvetica,Arial,sans-serif" font-size="10.00" fill="#5b6770">date</text>
<text xml:space="preserve" text-anchor="start" x="156.94" y="-63.76" font-family="Helvetica,Arial,sans-serif" font-weight="bold" font-size="9.00" fill="#2f4858">PK</text>
<text xml:space="preserve" text-anchor="start" x="18.32" y="-44.56" font-family="Helvetica,Arial,sans-serif" font-size="10.00" fill="#1f2933">job_id</text>
<text xml:space="preserve" text-anchor="start" x="87.82" y="-44.56" font-family="Helvetica,Arial,sans-serif" font-size="10.00" fill="#5b6770">varchar2(10)</text>
<text xml:space="preserve" text-anchor="start" x="157.32" y="-44.51" font-family="Helvetica,Arial,sans-serif" font-weight="bold" font-size="9.00" fill="#2f4858">FK</text>
<text xml:space="preserve" text-anchor="start" x="18.32" y="-25.31" font-family="Helvetica,Arial,sans-serif" font-size="10.00" fill="#1f2933">department_id</text>
<text xml:space="preserve" text-anchor="start" x="87.82" y="-25.31" font-family="Helvetica,Arial,sans-serif" font-size="10.00" fill="#5b6770">number(4)</text>
<text xml:space="preserve" text-anchor="start" x="157.32" y="-25.26" font-family="Helvetica,Arial,sans-serif" font-weight="bold" font-size="9.00" fill="#2f4858">FK</text>
</g>
<!-- JOB_HISTORY&#45;&gt;JOBS -->
<g id="edge2" class="edge">
<title>JOB_HISTORY:job_id&#45;&gt;JOBS:job_id</title>
<path fill="none" stroke="#7d8b99" stroke-width="1.1" d="M5.36,-40.68C4.06,-33.83 8.2,-23.23 14.32,-17.31 42.35,9.8 154.93,0.13 189.82,-17.31 240.63,-42.73 212.08,-118.09 263.9,-122.49"/>
<polygon fill="#7d8b99" stroke="#7d8b99" stroke-width="1.1" points="5.29,-40.62 10.18,-50.44 9.45,-44.02 12.75,-46.72 12.75,-46.72 12.75,-46.72 9.45,-44.02 15.88,-43.47 5.29,-40.62"/>
<polygon fill="#7d8b99" stroke="#7d8b99" stroke-width="1.1" points="268.02,-117.65 267.61,-127.64 265.61,-127.56 266.02,-117.57 268.02,-117.65"/>
<polyline fill="none" stroke="#7d8b99" stroke-width="1.1" points="268.82,-122.69 263.82,-122.48"/>
</g>
</g>
</svg>
