<?xml version="1.0" encoding="UTF-8" standalone="no"?>
<!DOCTYPE svg PUBLIC "-//W3C//DTD SVG 1.1//EN"
 "http://www.w3.org/Graphics/SVG/1.1/DTD/svg11.dtd">
<!-- Generated by graphviz version 16.1.0 (20260904.0139)
 -->
<!-- Title: erd Pages: 1 -->
<!-- the JOB_HISTORY table and its direct neighbours, as the hr module maps them. Generated by the erd skill; do not edit by hand. -->
<svg width="555pt" height="250pt"
 viewBox="0.00 0.00 555.00 250.00" xmlns="http://www.w3.org/2000/svg" xmlns:xlink="http://www.w3.org/1999/xlink">
<g id="graph0" class="graph" transform="scale(1 1) rotate(0) translate(21.6 228.06)">
<title>erd</title>
<polygon fill="white" stroke="none" points="-21.6,21.6 -21.6,-228.06 533.71,-228.06 533.71,21.6 -21.6,21.6"/>
<!-- JOB_HISTORY -->
<g id="node1" class="node">
<title>JOB_HISTORY</title>
<polygon fill="#ffffff" stroke="none" points="149.23,-145.21 149.23,-206.46 312.98,-206.46 312.98,-145.21 149.23,-145.21"/>
<polygon fill="none" stroke="#b8c2cc" points="149.23,-145.21 149.23,-206.46 312.98,-206.46 312.98,-145.21 149.23,-145.21"/>
<polygon fill="#8c4a3f" stroke="none" points="150.23,-184.71 150.23,-205.46 311.98,-205.46 311.98,-184.71 150.23,-184.71"/>
<text xml:space="preserve" text-anchor="start" x="189.11" y="-191.06" font-family="Helvetica,Arial,sans-serif" font-weight="bold" font-size="12.00" fill="white">JOB_HISTORY</text>
<text xml:space="preserve" text-anchor="start" x="154.23" y="-172.21" font-family="Helvetica,Arial,sans-serif" font-weight="bold" font-size="10.00" fill="#1f2933">employee_id</text>
<text xml:space="preserve" text-anchor="start" x="221.48" y="-172.46" font-family="Helvetica,Arial,sans-serif" font-size="10.00" fill="#5b6770">number(6)</text>
<text xml:space="preserve" text-anchor="start" x="272.98" y="-172.41" font-family="Helvetica,Arial,sans-serif" font-weight="bold" font-size="9.00" fill="#8c4a3f">PK FK</text>
<text xml:space="preserve" text-anchor="start" x="154.23" y="-152.96" font-family="Helvetica,Arial,sans-serif" font-weight="bold" font-size="10.00" fill="#1f2933">start_date</text>
<text xml:space="preserve" text-anchor="start" x="221.48" y="-153.21" font-family="Helvetica,Arial,sans-serif" font-size="10.00" fill="#5b6770">date</text>
<text xml:space="preserve" text-anchor="start" x="280.11" y="-153.16" font-family="Helvetica,Arial,sans-serif" font-weight="bold" font-size="9.00" fill="#8c4a3f">PK</text>
</g>
<!-- DEPARTMENTS -->
<g id="node2" class="node">
<title>DEPARTMENTS</title>
<polygon fill="#ffffff" stroke="none" points="192.61,-24.21 192.61,-66.21 349.61,-66.21 349.61,-24.21 192.61,-24.21"/>
<polygon fill="none" stroke="#b8c2cc" points="192.61,-24.21 192.61,-66.21 349.61,-66.21 349.61,-24.21 192.61,-24.21"/>
<polygon fill="#2f4858" stroke="none" points="193.61,-44.46 193.61,-65.21 348.61,-65.21 348.61,-44.46 193.61,-44.46"/>
<text xml:space="preserve" text-anchor="start" x="224.98" y="-50.81" font-family="Helvetica,Arial,sans-serif" font-weight="bold" font-size="12.00" fill="white">DEPARTMENTS</text>
<text xml:space="preserve" text-anchor="start" x="197.61" y="-31.96" font-family="Helvetica,Arial,sans-serif" font-weight="bold" font-size="10.00" fill="#1f2933">department_id</text>
<text xml:space="preserve" text-anchor="start" x="272.36" y="-32.21" font-family="Helvetica,Arial,sans-serif" font-size="10.00" fill="#5b6770">number(4)</text>
<text xml:space="preserve" text-anchor="start" x="323.86" y="-32.16" font-family="Helvetica,Arial,sans-serif" font-weight="bold" font-size="9.00" fill="#2f4858">PK</text>
</g>
<!-- JOB_HISTORY&#45;&gt;DEPARTMENTS -->
<g id="edge1" class="edge">
<title>JOB_HISTORY&#45;&gt;DEPARTMENTS:department_id</title>
<path fill="none" stroke="#7d8b99" stroke-width="1.1" d="M212.9,-136.18C197.65,-101.86 179.27,-54.89 185.39,-39.75"/>
<polygon fill="#7d8b99" stroke="#7d8b99" stroke-width="1.1" points="212.84,-136.04 212.85,-147.01 215.05,-140.93 216.8,-144.82 216.8,-144.82 216.8,-144.82 215.05,-140.93 221.05,-143.31 212.84,-136.04"/>
<ellipse fill="none" stroke="#7d8b99" stroke-width="1.1" cx="188.85" cy="-37.4" rx="4" ry="4"/>
</g>
<!-- EMPLOYEES -->
<g id="node3" class="node">
<title>EMPLOYEES</title>
<polygon fill="#ffffff" stroke="none" points="11.36,-24.21 11.36,-66.21 160.86,-66.21 160.86,-24.21 11.36,-24.21"/>
<polygon fill="none" stroke="#b8c2cc" points="11.36,-24.21 11.36,-66.21 160.86,-66.21 160.86,-24.21 11.36,-24.21"/>
<polygon fill="#2f4858" stroke="none" points="12.36,-44.46 12.36,-65.21 159.86,-65.21 159.86,-44.46 12.36,-44.46"/>
<text xml:space="preserve" text-anchor="start" x="48.23" y="-50.81" font-family="Helvetica,Arial,sans-serif" font-weight="bold" font-size="12.00" fill="white">EMPLOYEES</text>
<text xml:space="preserve" text-anchor="start" x="16.36" y="-31.96" font-family="Helvetica,Arial,sans-serif" font-weight="bold" font-size="10.00" fill="#1f2933">employee_id</text>
<text xml:space="preserve" text-anchor="start" x="83.61" y="-32.21" font-family="Helvetica,Arial,sans-serif" font-size="10.00" fill="#5b6770">number(6)</text>
<text xml:space="preserve" text-anchor="start" x="135.11" y="-32.16" font-family="Helvetica,Arial,sans-serif" font-weight="bold" font-size="9.00" fill="#2f4858">PK</text>
</g>
<!-- JOB_HISTORY&#45;&gt;EMPLOYEES -->
<g id="edge2" class="edge">
<title>JOB_HISTORY:employee_id&#45;&gt;EMPLOYEES:employee_id</title>
<path fill="none" stroke="#7d8b99" stroke-width="1.1" d="M139.02,-174.86C68.82,-171.56 43.88,-133.32 11.36,-66.21 -25.11,9.04 39.94,13.32 45.6,-19.56"/>
<polygon fill="#7d8b99" stroke="#7d8b99" stroke-width="1.1" points="138.87,-174.85 148.76,-179.58 144.23,-174.98 148.5,-175.07 148.5,-175.07 148.5,-175.07 144.23,-174.98 148.97,-170.58 138.87,-174.85"/>
<polygon fill="#7d8b99" stroke="#7d8b99" stroke-width="1.1" points="50.88,-22.8 40.92,-23.63 40.75,-21.64 50.72,-20.81 50.88,-22.8"/>
<polyline fill="none" stroke="#7d8b99" stroke-width="1.1" points="45.98,-24.21 45.57,-19.23"/>
</g>
<!-- JOBS -->
<g id="node4" class="node">
<title>JOBS</title>
<polygon fill="#ffffff" stroke="none" points="382.11,-24.21 382.11,-66.21 512.11,-66.21 512.11,-24.21 382.11,-24.21"/>
<polygon fill="none" stroke="#b8c2cc" points="382.11,-24.21 382.11,-66.21 512.11,-66.21 512.11,-24.21 382.11,-24.21"/>
<polygon fill="#2f4858" stroke="none" points="383.11,-44.46 383.11,-65.21 511.11,-65.21 511.11,-44.46 383.11,-44.46"/>
<text xml:space="preserve" text-anchor="start" x="430.61" y="-50.81" font-family="Helvetica,Arial,sans-serif" font-weight="bold" font-size="12.00" fill="white">JOBS</text>
<text xml:space="preserve" text-anchor="start" x="387.11" y="-31.96" font-family="Helvetica,Arial,sans-serif" font-weight="bold" font-size="10.00" fill="#1f2933">job_id</text>
<text xml:space="preserve" text-anchor="start" x="424.36" y="-32.21" font-family="Helvetica,Arial,sans-serif" font-size="10.00" fill="#5b6770">varchar2(10)</text>
<text xml:space="preserve" text-anchor="start" x="486.36" y="-32.16" font-family="Helvetica,Arial,sans-serif" font-weight="bold" font-size="9.00" fill="#2f4858">PK</text>
</g>
<!-- JOB_HISTORY&#45;&gt;JOBS -->
<g id="edge3" class="edge">
<title>JOB_HISTORY&#45;&gt;JOBS:job_id</title>
<path fill="none" stroke="#7d8b99" stroke-width="1.1" d="M285.35,-139.38C312.02,-120.05 343.25,-94.34 366.11,-66.21 374.75,-55.59 368.53,-39.54 377.33,-35.69"/>
<polygon fill="#7d8b99" stroke="#7d8b99" stroke-width="1.1" points="285.3,-139.41 274.55,-141.56 280.93,-142.53 277.46,-145.01 277.46,-145.01 277.46,-145.01 280.93,-142.53 279.77,-148.88 285.3,-139.41"/>
<polygon fill="#7d8b99" stroke="#7d8b99" stroke-width="1.1" points="380.25,-30.09 382,-39.94 380.03,-40.29 378.28,-30.44 380.25,-30.09"/>
<polyline fill="none" stroke="#7d8b99" stroke-width="1.1" points="382.11,-34.84 377.19,-35.72"/>
</g>
</g>
</svg>
