<?xml version="1.0" encoding="UTF-8" standalone="no"?>
<!DOCTYPE svg PUBLIC "-//W3C//DTD SVG 1.1//EN"
 "http://www.w3.org/Graphics/SVG/1.1/DTD/svg11.dtd">
<!-- Generated by graphviz version 16.1.0 (20260904.0139)
 -->
<!-- Title: erd Pages: 1 -->
<!-- the ORDER_ITEMS table and its direct neighbours, as the co module maps them. Generated by the erd skill; do not edit by hand. -->
<svg width="1189pt" height="399pt"
 viewBox="0.00 0.00 1189.00 399.00" xmlns="http://www.w3.org/2000/svg" xmlns:xlink="http://www.w3.org/1999/xlink">
<g id="graph0" class="graph" transform="scale(1 1) rotate(0) translate(21.6 377.1)">
<title>erd</title>
<polygon fill="white" stroke="none" points="-21.6,21.6 -21.6,-377.1 1166.98,-377.1 1166.98,21.6 -21.6,21.6"/>
<!-- ORDER_ITEMS -->
<g id="node1" class="node">
<title>ORDER_ITEMS</title>
<polygon fill="#ffffff" stroke="none" points="466.5,-255.75 466.5,-355.5 655,-355.5 655,-255.75 466.5,-255.75"/>
<polygon fill="none" stroke="#b8c2cc" points="466.5,-255.75 466.5,-355.5 655,-355.5 655,-255.75 466.5,-255.75"/>
<polygon fill="#8c4a3f" stroke="none" points="467.5,-333.75 467.5,-354.5 654,-354.5 654,-333.75 467.5,-333.75"/>
<text xml:space="preserve" text-anchor="start" x="516.88" y="-340.1" font-family="Helvetica,Arial,sans-serif" font-weight="bold" font-size="12.00" fill="white">ORDER_ITEMS</text>
<text xml:space="preserve" text-anchor="start" x="471.5" y="-321.25" font-family="Helvetica,Arial,sans-serif" font-weight="bold" font-size="10.00" fill="#1f2933">order_id</text>
<text xml:space="preserve" text-anchor="start" x="536.5" y="-321.5" font-family="Helvetica,Arial,sans-serif" font-size="10.00" fill="#5b6770">integer</text>
<text xml:space="preserve" text-anchor="start" x="601.5" y="-321.45" font-family="Helvetica,Arial,sans-serif" font-weight="bold" font-size="9.00" fill="#8c4a3f">PK FK</text>
<text xml:space="preserve" text-anchor="start" x="471.5" y="-302" font-family="Helvetica,Arial,sans-serif" font-weight="bold" font-size="10.00" fill="#1f2933">line_item_id</text>
<text xml:space="preserve" text-anchor="start" x="536.5" y="-302.25" font-family="Helvetica,Arial,sans-serif" font-size="10.00" fill="#5b6770">integer</text>
<text xml:space="preserve" text-anchor="start" x="608.63" y="-302.2" font-family="Helvetica,Arial,sans-serif" font-weight="bold" font-size="9.00" fill="#8c4a3f">PK</text>
<text xml:space="preserve" text-anchor="start" x="471.5" y="-283" font-family="Helvetica,Arial,sans-serif" font-size="10.00" fill="#1f2933">unit_price</text>
<text xml:space="preserve" text-anchor="start" x="536.5" y="-283" font-family="Helvetica,Arial,sans-serif" font-size="10.00" fill="#5b6770">number(10,2)</text>
<text xml:space="preserve" text-anchor="start" x="636.5" y="-283" font-family="Helvetica,Arial,sans-serif" font-size="9.00" fill="#8b949e">NN</text>
<text xml:space="preserve" text-anchor="start" x="471.5" y="-263.75" font-family="Helvetica,Arial,sans-serif" font-size="10.00" fill="#1f2933">quantity</text>
<text xml:space="preserve" text-anchor="start" x="536.5" y="-263.75" font-family="Helvetica,Arial,sans-serif" font-size="10.00" fill="#5b6770">integer</text>
<text xml:space="preserve" text-anchor="start" x="636.5" y="-263.75" font-family="Helvetica,Arial,sans-serif" font-size="9.00" fill="#8b949e">NN</text>
</g>
<!-- CUSTOMER_ORDER_PRODUCTS -->
<g id="node2" class="node">
<title>CUSTOMER_ORDER_PRODUCTS</title>
<path fill="#ffffff" stroke="none" d="M173.13,-67.38C173.13,-67.38 380.38,-67.38 380.38,-67.38 386.38,-67.38 392.38,-73.38 392.38,-79.38 392.38,-79.38 392.38,-97.38 392.38,-97.38 392.38,-103.38 386.38,-109.38 380.38,-109.38 380.38,-109.38 173.13,-109.38 173.13,-109.38 167.13,-109.38 161.13,-103.38 161.13,-97.38 161.13,-97.38 161.13,-79.38 161.13,-79.38 161.13,-73.38 167.13,-67.38 173.13,-67.38"/>
<path fill="none" stroke="#b8c2cc" d="M173.13,-67.38C173.13,-67.38 380.38,-67.38 380.38,-67.38 386.38,-67.38 392.38,-73.38 392.38,-79.38 392.38,-79.38 392.38,-97.38 392.38,-97.38 392.38,-103.38 386.38,-109.38 380.38,-109.38 380.38,-109.38 173.13,-109.38 173.13,-109.38 167.13,-109.38 161.13,-103.38 161.13,-97.38 161.13,-97.38 161.13,-79.38 161.13,-79.38 161.13,-73.38 167.13,-67.38 173.13,-67.38"/>
<polygon fill="#5a7078" stroke="none" points="162.13,-87.62 162.13,-108.38 391.38,-108.38 391.38,-87.62 162.13,-87.62"/>
<text xml:space="preserve" text-anchor="start" x="166.13" y="-93.97" font-family="Helvetica,Arial,sans-serif" font-weight="bold" font-size="12.00" fill="white">CUSTOMER_ORDER_PRODUCTS</text>
<text xml:space="preserve" text-anchor="start" x="362.63" y="-93.97" font-family="Helvetica,Arial,sans-serif" font-size="8.00" fill="#eef2f5">  VIEW</text>
<text xml:space="preserve" text-anchor="start" x="166.13" y="-75.12" font-family="Helvetica,Arial,sans-serif" font-weight="bold" font-size="10.00" fill="#1f2933">order_id</text>
<text xml:space="preserve" text-anchor="start" x="243.13" y="-75.38" font-family="Helvetica,Arial,sans-serif" font-size="10.00" fill="#5b6770">integer</text>
<text xml:space="preserve" text-anchor="start" x="325.38" y="-75.33" font-family="Helvetica,Arial,sans-serif" font-weight="bold" font-size="9.00" fill="#5a7078">ID</text>
</g>
<!-- ORDER_ITEMS&#45;&gt;CUSTOMER_ORDER_PRODUCTS -->
<g id="edge4" class="edge">
<title>ORDER_ITEMS&#45;&gt;CUSTOMER_ORDER_PRODUCTS</title>
<path fill="none" stroke="#a9b4bf" stroke-dasharray="5,2" d="M496.31,-255.78C438.48,-211.95 355.91,-149.37 310.28,-114.79"/>
<polygon fill="#a9b4bf" stroke="#a9b4bf" points="303.98,-110.02 312.53,-111.98 306.2,-111.7 310.36,-114.85 310.36,-114.85 310.36,-114.85 306.2,-111.7 308.18,-117.72 303.98,-110.02"/>
</g>
<!-- ORDERS -->
<g id="node3" class="node">
<title>ORDERS</title>
<polygon fill="#ffffff" stroke="none" points="14.25,-67.38 14.25,-109.38 129.25,-109.38 129.25,-67.38 14.25,-67.38"/>
<polygon fill="none" stroke="#b8c2cc" points="14.25,-67.38 14.25,-109.38 129.25,-109.38 129.25,-67.38 14.25,-67.38"/>
<polygon fill="#2f4858" stroke="none" points="15.25,-87.62 15.25,-108.38 128.25,-108.38 128.25,-87.62 15.25,-87.62"/>
<text xml:space="preserve" text-anchor="start" x="45.5" y="-93.97" font-family="Helvetica,Arial,sans-serif" font-weight="bold" font-size="12.00" fill="white">ORDERS</text>
<text xml:space="preserve" text-anchor="start" x="19.25" y="-75.12" font-family="Helvetica,Arial,sans-serif" font-weight="bold" font-size="10.00" fill="#1f2933">order_id</text>
<text xml:space="preserve" text-anchor="start" x="66.25" y="-75.38" font-family="Helvetica,Arial,sans-serif" font-size="10.00" fill="#5b6770">integer</text>
<text xml:space="preserve" text-anchor="start" x="103.5" y="-75.33" font-family="Helvetica,Arial,sans-serif" font-weight="bold" font-size="9.00" fill="#2f4858">PK</text>
</g>
<!-- ORDER_ITEMS&#45;&gt;ORDERS -->
<g id="edge1" class="edge">
<title>ORDER_ITEMS:order_id&#45;&gt;ORDERS:order_id</title>
<path fill="none" stroke="#7d8b99" stroke-width="1.1" d="M456.15,-324.11C240.43,-323.31 128.19,-296.44 14.25,-109.38 -25.29,-44.46 29.87,-43.9 37.82,-62.78"/>
<polygon fill="#7d8b99" stroke="#7d8b99" stroke-width="1.1" points="456.13,-324.11 466.12,-328.62 461.5,-324.12 465.76,-324.12 465.76,-324.12 465.76,-324.12 461.5,-324.12 466.14,-319.62 456.13,-324.11"/>
<polygon fill="#7d8b99" stroke="#7d8b99" stroke-width="1.1" points="43.45,-65.4 33.65,-67.39 33.25,-65.43 43.05,-63.44 43.45,-65.4"/>
<polyline fill="none" stroke="#7d8b99" stroke-width="1.1" points="38.75,-67.38 37.76,-62.47"/>
</g>
<!-- PRODUCTS -->
<g id="node4" class="node">
<title>PRODUCTS</title>
<polygon fill="#ffffff" stroke="none" points="424.63,-67.38 424.63,-109.38 550.88,-109.38 550.88,-67.38 424.63,-67.38"/>
<polygon fill="none" stroke="#b8c2cc" points="424.63,-67.38 424.63,-109.38 550.88,-109.38 550.88,-67.38 424.63,-67.38"/>
<polygon fill="#2f4858" stroke="none" points="425.63,-87.62 425.63,-108.38 549.88,-108.38 549.88,-87.62 425.63,-87.62"/>
<text xml:space="preserve" text-anchor="start" x="453.25" y="-93.97" font-family="Helvetica,Arial,sans-serif" font-weight="bold" font-size="12.00" fill="white">PRODUCTS</text>
<text xml:space="preserve" text-anchor="start" x="429.63" y="-75.12" font-family="Helvetica,Arial,sans-serif" font-weight="bold" font-size="10.00" fill="#1f2933">product_id</text>
<text xml:space="preserve" text-anchor="start" x="487.88" y="-75.38" font-family="Helvetica,Arial,sans-serif" font-size="10.00" fill="#5b6770">integer</text>
<text xml:space="preserve" text-anchor="start" x="525.13" y="-75.33" font-family="Helvetica,Arial,sans-serif" font-weight="bold" font-size="9.00" fill="#2f4858">PK</text>
</g>
<!-- ORDER_ITEMS&#45;&gt;PRODUCTS -->
<g id="edge2" class="edge">
<title>ORDER_ITEMS&#45;&gt;PRODUCTS:product_id</title>
<path fill="none" stroke="#7d8b99" stroke-width="1.1" d="M507.46,-248.29C476.71,-211.78 440.99,-161.45 424.63,-109.38 405.78,-49.4 449.85,-34.42 454.38,-62.5"/>
<polygon fill="#7d8b99" stroke="#7d8b99" stroke-width="1.1" points="507.2,-247.98 510.27,-258.51 510.68,-252.06 513.46,-255.31 513.46,-255.31 513.46,-255.31 510.68,-252.06 517.12,-252.66 507.2,-247.98"/>
<polygon fill="#7d8b99" stroke="#7d8b99" stroke-width="1.1" points="459.66,-66 449.69,-66.76 449.54,-64.76 459.51,-64 459.66,-66"/>
<polyline fill="none" stroke="#7d8b99" stroke-width="1.1" points="454.75,-67.38 454.37,-62.39"/>
</g>
<!-- PRODUCT_ORDERS -->
<g id="node5" class="node">
<title>PRODUCT_ORDERS</title>
<path fill="#ffffff" stroke="none" d="M595.25,-57.75C595.25,-57.75 740.25,-57.75 740.25,-57.75 746.25,-57.75 752.25,-63.75 752.25,-69.75 752.25,-69.75 752.25,-107 752.25,-107 752.25,-113 746.25,-119 740.25,-119 740.25,-119 595.25,-119 595.25,-119 589.25,-119 583.25,-113 583.25,-107 583.25,-107 583.25,-69.75 583.25,-69.75 583.25,-63.75 589.25,-57.75 595.25,-57.75"/>
<path fill="none" stroke="#b8c2cc" d="M595.25,-57.75C595.25,-57.75 740.25,-57.75 740.25,-57.75 746.25,-57.75 752.25,-63.75 752.25,-69.75 752.25,-69.75 752.25,-107 752.25,-107 752.25,-113 746.25,-119 740.25,-119 740.25,-119 595.25,-119 595.25,-119 589.25,-119 583.25,-113 583.25,-107 583.25,-107 583.25,-69.75 583.25,-69.75 583.25,-63.75 589.25,-57.75 595.25,-57.75"/>
<polygon fill="#5a7078" stroke="none" points="584.25,-97.25 584.25,-118 751.25,-118 751.25,-97.25 584.25,-97.25"/>
<text xml:space="preserve" text-anchor="start" x="595.38" y="-103.6" font-family="Helvetica,Arial,sans-serif" font-weight="bold" font-size="12.00" fill="white">PRODUCT_ORDERS</text>
<text xml:space="preserve" text-anchor="start" x="715.38" y="-103.6" font-family="Helvetica,Arial,sans-serif" font-size="8.00" fill="#eef2f5">  VIEW</text>
<text xml:space="preserve" text-anchor="start" x="588.25" y="-84.75" font-family="Helvetica,Arial,sans-serif" font-weight="bold" font-size="10.00" fill="#1f2933">product_name</text>
<text xml:space="preserve" text-anchor="start" x="663" y="-85" font-family="Helvetica,Arial,sans-serif" font-size="10.00" fill="#5b6770">varchar2(255)</text>
<text xml:space="preserve" text-anchor="start" x="730.25" y="-84.95" font-family="Helvetica,Arial,sans-serif" font-weight="bold" font-size="9.00" fill="#5a7078">ID</text>
<text xml:space="preserve" text-anchor="start" x="588.25" y="-65.5" font-family="Helvetica,Arial,sans-serif" font-weight="bold" font-size="10.00" fill="#1f2933">order_status</text>
<text xml:space="preserve" text-anchor="start" x="663" y="-65.75" font-family="Helvetica,Arial,sans-serif" font-size="10.00" fill="#5b6770">varchar2(10)</text>
<text xml:space="preserve" text-anchor="start" x="730.25" y="-65.7" font-family="Helvetica,Arial,sans-serif" font-weight="bold" font-size="9.00" fill="#5a7078">ID</text>
</g>
<!-- ORDER_ITEMS&#45;&gt;PRODUCT_ORDERS -->
<g id="edge5" class="edge">
<title>ORDER_ITEMS&#45;&gt;PRODUCT_ORDERS</title>
<path fill="none" stroke="#a9b4bf" stroke-dasharray="5,2" d="M585.03,-255.78C604.44,-216.74 631.25,-162.81 649.02,-127.05"/>
<polygon fill="#a9b4bf" stroke="#a9b4bf" points="652.57,-119.91 652.23,-128.68 651.33,-122.4 649.01,-127.07 649.01,-127.07 649.01,-127.07 651.33,-122.4 645.79,-125.47 652.57,-119.91"/>
</g>
<!-- SHIPMENTS -->
<g id="node6" class="node">
<title>SHIPMENTS</title>
<polygon fill="#ffffff" stroke="none" points="783.88,-67.38 783.88,-109.38 917.63,-109.38 917.63,-67.38 783.88,-67.38"/>
<polygon fill="none" stroke="#b8c2cc" points="783.88,-67.38 783.88,-109.38 917.63,-109.38 917.63,-67.38 783.88,-67.38"/>
<polygon fill="#2f4858" stroke="none" points="784.88,-87.62 784.88,-108.38 916.63,-108.38 916.63,-87.62 784.88,-87.62"/>
<text xml:space="preserve" text-anchor="start" x="815.13" y="-93.97" font-family="Helvetica,Arial,sans-serif" font-weight="bold" font-size="12.00" fill="white">SHIPMENTS</text>
<text xml:space="preserve" text-anchor="start" x="788.88" y="-75.12" font-family="Helvetica,Arial,sans-serif" font-weight="bold" font-size="10.00" fill="#1f2933">shipment_id</text>
<text xml:space="preserve" text-anchor="start" x="854.63" y="-75.38" font-family="Helvetica,Arial,sans-serif" font-size="10.00" fill="#5b6770">integer</text>
<text xml:space="preserve" text-anchor="start" x="891.88" y="-75.33" font-family="Helvetica,Arial,sans-serif" font-weight="bold" font-size="9.00" fill="#2f4858">PK</text>
</g>
<!-- ORDER_ITEMS&#45;&gt;SHIPMENTS -->
<g id="edge3" class="edge">
<title>ORDER_ITEMS&#45;&gt;SHIPMENTS:shipment_id</title>
<path fill="none" stroke="#7d8b99" stroke-width="1.1" d="M664.21,-263.73C702.93,-243.29 743.58,-214.68 768.75,-176.75 779.2,-161 766.72,-100.46 776.5,-82.84"/>
<polygon fill="#7d8b99" stroke="#7d8b99" stroke-width="1.1" points="664.17,-263.75 653.21,-264.31 659.39,-266.2 655.6,-268.15 655.6,-268.15 655.6,-268.15 659.39,-266.2 657.32,-272.32 664.17,-263.75"/>
<ellipse fill="none" stroke="#7d8b99" stroke-width="1.1" cx="780.07" cy="-80.5" rx="4" ry="4"/>
</g>
<!-- STORE_ORDERS -->
<g id="node7" class="node">
<title>STORE_ORDERS</title>
<path fill="#ffffff" stroke="none" d="M962.13,0C962.13,0 1133.38,0 1133.38,0 1139.38,0 1145.38,-6 1145.38,-12 1145.38,-12 1145.38,-164.75 1145.38,-164.75 1145.38,-170.75 1139.38,-176.75 1133.38,-176.75 1133.38,-176.75 962.13,-176.75 962.13,-176.75 956.13,-176.75 950.13,-170.75 950.13,-164.75 950.13,-164.75 950.13,-12 950.13,-12 950.13,-6 956.13,0 962.13,0"/>
<path fill="none" stroke="#d6dce2" d="M962.13,0C962.13,0 1133.38,0 1133.38,0 1139.38,0 1145.38,-6 1145.38,-12 1145.38,-12 1145.38,-164.75 1145.38,-164.75 1145.38,-170.75 1139.38,-176.75 1133.38,-176.75 1133.38,-176.75 962.13,-176.75 962.13,-176.75 956.13,-176.75 950.13,-170.75 950.13,-164.75 950.13,-164.75 950.13,-12 950.13,-12 950.13,-6 956.13,0 962.13,0"/>
<polygon fill="#a3adb8" stroke="none" points="951.13,-155 951.13,-175.75 1144.38,-175.75 1144.38,-155 951.13,-155"/>
<text xml:space="preserve" text-anchor="start" x="955.13" y="-161.35" font-family="Helvetica,Arial,sans-serif" font-weight="bold" font-size="12.00" fill="white">STORE_ORDERS</text>
<text xml:space="preserve" text-anchor="start" x="1056.38" y="-161.35" font-family="Helvetica,Arial,sans-serif" font-size="8.00" fill="#eef2f5">  VIEW · NOT MAPPED</text>
<text xml:space="preserve" text-anchor="start" x="955.13" y="-142.75" font-family="Helvetica,Arial,sans-serif" font-size="10.00" fill="#8a949e">total</text>
<text xml:space="preserve" text-anchor="start" x="955.13" y="-123.5" font-family="Helvetica,Arial,sans-serif" font-size="10.00" fill="#8a949e">store_name</text>
<text xml:space="preserve" text-anchor="start" x="1029.13" y="-123.5" font-family="Helvetica,Arial,sans-serif" font-size="10.00" fill="#8a949e">varchar2(255)</text>
<text xml:space="preserve" text-anchor="start" x="955.13" y="-104.25" font-family="Helvetica,Arial,sans-serif" font-size="10.00" fill="#8a949e">address</text>
<text xml:space="preserve" text-anchor="start" x="955.13" y="-85" font-family="Helvetica,Arial,sans-serif" font-size="10.00" fill="#8a949e">latitude</text>
<text xml:space="preserve" text-anchor="start" x="1029.13" y="-85" font-family="Helvetica,Arial,sans-serif" font-size="10.00" fill="#8a949e">number(9,6)</text>
<text xml:space="preserve" text-anchor="start" x="955.13" y="-65.75" font-family="Helvetica,Arial,sans-serif" font-size="10.00" fill="#8a949e">longitude</text>
<text xml:space="preserve" text-anchor="start" x="1029.13" y="-65.75" font-family="Helvetica,Arial,sans-serif" font-size="10.00" fill="#8a949e">number(9,6)</text>
<text xml:space="preserve" text-anchor="start" x="955.13" y="-46.5" font-family="Helvetica,Arial,sans-serif" font-size="10.00" fill="#8a949e">order_status</text>
<text xml:space="preserve" text-anchor="start" x="1029.13" y="-46.5" font-family="Helvetica,Arial,sans-serif" font-size="10.00" fill="#8a949e">varchar2(10)</text>
<text xml:space="preserve" text-anchor="start" x="955.13" y="-27.25" font-family="Helvetica,Arial,sans-serif" font-size="10.00" fill="#8a949e">order_count</text>
<text xml:space="preserve" text-anchor="start" x="955.13" y="-8" font-family="Helvetica,Arial,sans-serif" font-size="10.00" fill="#8a949e">total_sales</text>
</g>
<!-- ORDER_ITEMS&#45;&gt;STORE_ORDERS -->
<g id="edge6" class="edge">
<title>ORDER_ITEMS&#45;&gt;STORE_ORDERS</title>
<path fill="none" stroke="#a9b4bf" stroke-dasharray="5,2" d="M654.65,-281.54C732.24,-260.36 843.85,-224.94 933.75,-176.75 936.67,-175.19 939.59,-173.55 942.51,-171.85"/>
<polygon fill="#a9b4bf" stroke="#a9b4bf" points="949.18,-167.85 944.17,-175.05 946.79,-169.28 942.32,-171.96 942.32,-171.96 942.32,-171.96 946.79,-169.28 940.46,-168.88 949.18,-167.85"/>
</g>
</g>
</svg>
