<?xml version="1.0" encoding="UTF-8" standalone="no"?>
<!DOCTYPE svg PUBLIC "-//W3C//DTD SVG 1.1//EN"
 "http://www.w3.org/Graphics/SVG/1.1/DTD/svg11.dtd">
<!-- Generated by graphviz version 16.1.0 (20260904.0139)
 -->
<!-- Title: erd Pages: 1 -->
<!-- the PRODUCT_REVIEWS view and its direct neighbours, from the upstream DDL; the co module maps no entity to it. Generated by the erd skill; do not edit by hand. -->
<svg width="466pt" height="143pt"
 viewBox="0.00 0.00 466.00 143.00" xmlns="http://www.w3.org/2000/svg" xmlns:xlink="http://www.w3.org/1999/xlink">
<g id="graph0" class="graph" transform="scale(1 1) rotate(0) translate(21.6 121.35)">
<title>erd</title>
<polygon fill="white" stroke="none" points="-21.6,21.6 -21.6,-121.35 444.6,-121.35 444.6,21.6 -21.6,21.6"/>
<!-- PRODUCT_REVIEWS -->
<g id="node1" class="node">
<title>PRODUCT_REVIEWS</title>
<path fill="#ffffff" stroke="none" d="M217.25,0C217.25,0 411,0 411,0 417,0 423,-6 423,-12 423,-12 423,-87.75 423,-87.75 423,-93.75 417,-99.75 411,-99.75 411,-99.75 217.25,-99.75 217.25,-99.75 211.25,-99.75 205.25,-93.75 205.25,-87.75 205.25,-87.75 205.25,-12 205.25,-12 205.25,-6 211.25,0 217.25,0"/>
<path fill="none" stroke="#d6dce2" d="M217.25,0C217.25,0 411,0 411,0 417,0 423,-6 423,-12 423,-12 423,-87.75 423,-87.75 423,-93.75 417,-99.75 411,-99.75 411,-99.75 217.25,-99.75 217.25,-99.75 211.25,-99.75 205.25,-93.75 205.25,-87.75 205.25,-87.75 205.25,-12 205.25,-12 205.25,-6 211.25,0 217.25,0"/>
<polygon fill="#8c4a3f" stroke="none" points="206.25,-78 206.25,-98.75 422,-98.75 422,-78 206.25,-78"/>
<text xml:space="preserve" text-anchor="start" x="210.25" y="-84.35" font-family="Helvetica,Arial,sans-serif" font-weight="bold" font-size="12.00" fill="white">PRODUCT_REVIEWS</text>
<text xml:space="preserve" text-anchor="start" x="334" y="-84.35" font-family="Helvetica,Arial,sans-serif" font-size="8.00" fill="#eef2f5">  VIEW · NOT MAPPED</text>
<text xml:space="preserve" text-anchor="start" x="210.25" y="-65.75" font-family="Helvetica,Arial,sans-serif" font-size="10.00" fill="#8a949e">product_name</text>
<text xml:space="preserve" text-anchor="start" x="295.5" y="-65.75" font-family="Helvetica,Arial,sans-serif" font-size="10.00" fill="#8a949e">varchar2(255)</text>
<text xml:space="preserve" text-anchor="start" x="210.25" y="-46.5" font-family="Helvetica,Arial,sans-serif" font-size="10.00" fill="#8a949e">rating</text>
<text xml:space="preserve" text-anchor="start" x="210.25" y="-27.25" font-family="Helvetica,Arial,sans-serif" font-size="10.00" fill="#8a949e">avg_rating</text>
<text xml:space="preserve" text-anchor="start" x="210.25" y="-8" font-family="Helvetica,Arial,sans-serif" font-size="10.00" fill="#8a949e">review</text>
</g>
<!-- PRODUCTS -->
<g id="node2" class="node">
<title>PRODUCTS</title>
<polygon fill="#ffffff" stroke="none" points="0,-28.88 0,-70.88 126.25,-70.88 126.25,-28.88 0,-28.88"/>
<polygon fill="none" stroke="#b8c2cc" points="0,-28.88 0,-70.88 126.25,-70.88 126.25,-28.88 0,-28.88"/>
<polygon fill="#2f4858" stroke="none" points="1,-49.12 1,-69.88 125.25,-69.88 125.25,-49.12 1,-49.12"/>
<text xml:space="preserve" text-anchor="start" x="28.62" y="-55.48" font-family="Helvetica,Arial,sans-serif" font-weight="bold" font-size="12.00" fill="white">PRODUCTS</text>
<text xml:space="preserve" text-anchor="start" x="5" y="-36.62" font-family="Helvetica,Arial,sans-serif" font-weight="bold" font-size="10.00" fill="#1f2933">product_id</text>
<text xml:space="preserve" text-anchor="start" x="63.25" y="-36.88" font-family="Helvetica,Arial,sans-serif" font-size="10.00" fill="#5b6770">integer</text>
<text xml:space="preserve" text-anchor="start" x="100.5" y="-36.83" font-family="Helvetica,Arial,sans-serif" font-weight="bold" font-size="9.00" fill="#2f4858">PK</text>
</g>
<!-- PRODUCTS&#45;&gt;PRODUCT_REVIEWS -->
<g id="edge1" class="edge">
<title>PRODUCTS&#45;&gt;PRODUCT_REVIEWS</title>
<path fill="none" stroke="#a9b4bf" stroke-dasharray="5,2" d="M126,-49.88C147.42,-49.88 172.19,-49.88 196.55,-49.88"/>
<polygon fill="#a9b4bf" stroke="#a9b4bf" points="204.28,-49.88 196.28,-53.48 201.5,-49.88 196.28,-49.88 196.28,-49.88 196.28,-49.88 201.5,-49.88 196.28,-46.28 204.28,-49.88"/>
</g>
</g>
</svg>
