<?xml version="1.0" encoding="UTF-8" standalone="no"?>
<!DOCTYPE svg PUBLIC "-//W3C//DTD SVG 1.1//EN"
 "http://www.w3.org/Graphics/SVG/1.1/DTD/svg11.dtd">
<!-- Generated by graphviz version 16.1.0 (20260904.0139)
 -->
<!-- Title: erd Pages: 1 -->
<!-- the FWEEK_PSCAT_SALES_MV materialized view and its direct neighbours, as the sh module maps them. Generated by the erd skill; do not edit by hand. -->
<svg width="489pt" height="360pt"
 viewBox="0.00 0.00 489.00 360.00" xmlns="http://www.w3.org/2000/svg" xmlns:xlink="http://www.w3.org/1999/xlink">
<g id="graph0" class="graph" transform="scale(1 1) rotate(0) translate(21.6 338.6)">
<title>erd</title>
<polygon fill="white" stroke="none" points="-21.6,21.6 -21.6,-338.6 467.73,-338.6 467.73,21.6 -21.6,21.6"/>
<!-- FWEEK_PSCAT_SALES_MV -->
<g id="node1" class="node">
<title>FWEEK_PSCAT_SALES_MV</title>
<path fill="#ffffff" stroke="none" d="M118.25,0C118.25,0 354,0 354,0 360,0 366,-6 366,-12 366,-12 366,-107 366,-107 366,-113 360,-119 354,-119 354,-119 118.25,-119 118.25,-119 112.25,-119 106.25,-113 106.25,-107 106.25,-107 106.25,-12 106.25,-12 106.25,-6 112.25,0 118.25,0"/>
<path fill="none" stroke="#b8c2cc" d="M118.25,0C118.25,0 354,0 354,0 360,0 366,-6 366,-12 366,-12 366,-107 366,-107 366,-113 360,-119 354,-119 354,-119 118.25,-119 118.25,-119 112.25,-119 106.25,-113 106.25,-107 106.25,-107 106.25,-12 106.25,-12 106.25,-6 112.25,0 118.25,0"/>
<polygon fill="#8c4a3f" stroke="none" points="107.25,-97.25 107.25,-118 365,-118 365,-97.25 107.25,-97.25"/>
<text xml:space="preserve" text-anchor="start" x="111.25" y="-103.6" font-family="Helvetica,Arial,sans-serif" font-weight="bold" font-size="12.00" fill="white">FWEEK_PSCAT_SALES_MV</text>
<text xml:space="preserve" text-anchor="start" x="275.5" y="-103.6" font-family="Helvetica,Arial,sans-serif" font-size="8.00" fill="#eef2f5">  MATERIALIZED VIEW</text>
<text xml:space="preserve" text-anchor="start" x="111.25" y="-84.75" font-family="Helvetica,Arial,sans-serif" font-weight="bold" font-size="10.00" fill="#1f2933">week_ending_day</text>
<text xml:space="preserve" text-anchor="start" x="222.94" y="-85" font-family="Helvetica,Arial,sans-serif" font-size="10.00" fill="#5b6770">date</text>
<text xml:space="preserve" text-anchor="start" x="314.47" y="-84.95" font-family="Helvetica,Arial,sans-serif" font-weight="bold" font-size="9.00" fill="#8c4a3f">ID</text>
<text xml:space="preserve" text-anchor="start" x="111.25" y="-65.5" font-family="Helvetica,Arial,sans-serif" font-weight="bold" font-size="10.00" fill="#1f2933">prod_subcategory</text>
<text xml:space="preserve" text-anchor="start" x="222.94" y="-65.75" font-family="Helvetica,Arial,sans-serif" font-size="10.00" fill="#5b6770">varchar2(50)</text>
<text xml:space="preserve" text-anchor="start" x="314.47" y="-65.7" font-family="Helvetica,Arial,sans-serif" font-weight="bold" font-size="9.00" fill="#8c4a3f">ID</text>
<text xml:space="preserve" text-anchor="start" x="111.25" y="-46.25" font-family="Helvetica,Arial,sans-serif" font-weight="bold" font-size="10.00" fill="#1f2933">channel_id</text>
<text xml:space="preserve" text-anchor="start" x="222.94" y="-46.5" font-family="Helvetica,Arial,sans-serif" font-size="10.00" fill="#5b6770">number(1)</text>
<text xml:space="preserve" text-anchor="start" x="314.47" y="-46.45" font-family="Helvetica,Arial,sans-serif" font-weight="bold" font-size="9.00" fill="#8c4a3f">ID</text>
<text xml:space="preserve" text-anchor="start" x="111.25" y="-27" font-family="Helvetica,Arial,sans-serif" font-weight="bold" font-size="10.00" fill="#1f2933">promo_id</text>
<text xml:space="preserve" text-anchor="start" x="222.94" y="-27.25" font-family="Helvetica,Arial,sans-serif" font-size="10.00" fill="#5b6770">number(6)</text>
<text xml:space="preserve" text-anchor="start" x="314.47" y="-27.2" font-family="Helvetica,Arial,sans-serif" font-weight="bold" font-size="9.00" fill="#8c4a3f">ID</text>
<text xml:space="preserve" text-anchor="start" x="111.25" y="-8" font-family="Helvetica,Arial,sans-serif" font-size="10.00" fill="#1f2933">dollars</text>
<text xml:space="preserve" text-anchor="start" x="222.94" y="-8" font-family="Helvetica,Arial,sans-serif" font-size="10.00" fill="#5b6770">bigdecimal</text>
</g>
<!-- PRODUCTS -->
<g id="node2" class="node">
<title>PRODUCTS</title>
<polygon fill="#ffffff" stroke="none" points="0,-236.5 0,-278.5 126.25,-278.5 126.25,-236.5 0,-236.5"/>
<polygon fill="none" stroke="#b8c2cc" points="0,-236.5 0,-278.5 126.25,-278.5 126.25,-236.5 0,-236.5"/>
<polygon fill="#2f4858" stroke="none" points="1,-256.75 1,-277.5 125.25,-277.5 125.25,-256.75 1,-256.75"/>
<text xml:space="preserve" text-anchor="start" x="28.62" y="-263.1" font-family="Helvetica,Arial,sans-serif" font-weight="bold" font-size="12.00" fill="white">PRODUCTS</text>
<text xml:space="preserve" text-anchor="start" x="5" y="-244.25" font-family="Helvetica,Arial,sans-serif" font-weight="bold" font-size="10.00" fill="#1f2933">prod_id</text>
<text xml:space="preserve" text-anchor="start" x="49" y="-244.5" font-family="Helvetica,Arial,sans-serif" font-size="10.00" fill="#5b6770">number(6)</text>
<text xml:space="preserve" text-anchor="start" x="100.5" y="-244.45" font-family="Helvetica,Arial,sans-serif" font-weight="bold" font-size="9.00" fill="#2f4858">PK</text>
</g>
<!-- PRODUCTS&#45;&gt;FWEEK_PSCAT_SALES_MV -->
<g id="edge1" class="edge">
<title>PRODUCTS&#45;&gt;FWEEK_PSCAT_SALES_MV</title>
<path fill="none" stroke="#a9b4bf" stroke-dasharray="5,2" d="M80.67,-236.63C103.56,-210.68 144.76,-164.01 178.99,-125.23"/>
<polygon fill="#a9b4bf" stroke="#a9b4bf" points="184.05,-119.49 181.46,-127.87 182.21,-121.58 178.76,-125.49 178.76,-125.49 178.76,-125.49 182.21,-121.58 176.06,-123.11 184.05,-119.49"/>
</g>
<!-- SALES -->
<g id="node3" class="node">
<title>SALES</title>
<polygon fill="#ffffff" stroke="none" points="158.38,-198 158.38,-317 313.88,-317 313.88,-198 158.38,-198"/>
<polygon fill="none" stroke="#b8c2cc" points="158.38,-198 158.38,-317 313.88,-317 313.88,-198 158.38,-198"/>
<polygon fill="#2f4858" stroke="none" points="159.38,-295.25 159.38,-316 312.88,-316 312.88,-295.25 159.38,-295.25"/>
<text xml:space="preserve" text-anchor="start" x="215.5" y="-301.6" font-family="Helvetica,Arial,sans-serif" font-weight="bold" font-size="12.00" fill="white">SALES</text>
<text xml:space="preserve" text-anchor="start" x="163.38" y="-282.75" font-family="Helvetica,Arial,sans-serif" font-weight="bold" font-size="10.00" fill="#1f2933">prod_id</text>
<text xml:space="preserve" text-anchor="start" x="222.38" y="-283" font-family="Helvetica,Arial,sans-serif" font-size="10.00" fill="#5b6770">number(6)</text>
<text xml:space="preserve" text-anchor="start" x="273.88" y="-282.95" font-family="Helvetica,Arial,sans-serif" font-weight="bold" font-size="9.00" fill="#2f4858">PK FK</text>
<text xml:space="preserve" text-anchor="start" x="163.38" y="-263.5" font-family="Helvetica,Arial,sans-serif" font-weight="bold" font-size="10.00" fill="#1f2933">cust_id</text>
<text xml:space="preserve" text-anchor="start" x="222.38" y="-263.75" font-family="Helvetica,Arial,sans-serif" font-size="10.00" fill="#5b6770">number</text>
<text xml:space="preserve" text-anchor="start" x="273.88" y="-263.7" font-family="Helvetica,Arial,sans-serif" font-weight="bold" font-size="9.00" fill="#2f4858">PK FK</text>
<text xml:space="preserve" text-anchor="start" x="163.38" y="-244.25" font-family="Helvetica,Arial,sans-serif" font-weight="bold" font-size="10.00" fill="#1f2933">time_id</text>
<text xml:space="preserve" text-anchor="start" x="222.38" y="-244.5" font-family="Helvetica,Arial,sans-serif" font-size="10.00" fill="#5b6770">date</text>
<text xml:space="preserve" text-anchor="start" x="273.88" y="-244.45" font-family="Helvetica,Arial,sans-serif" font-weight="bold" font-size="9.00" fill="#2f4858">PK FK</text>
<text xml:space="preserve" text-anchor="start" x="163.38" y="-225" font-family="Helvetica,Arial,sans-serif" font-weight="bold" font-size="10.00" fill="#1f2933">channel_id</text>
<text xml:space="preserve" text-anchor="start" x="222.38" y="-225.25" font-family="Helvetica,Arial,sans-serif" font-size="10.00" fill="#5b6770">number(1)</text>
<text xml:space="preserve" text-anchor="start" x="273.88" y="-225.2" font-family="Helvetica,Arial,sans-serif" font-weight="bold" font-size="9.00" fill="#2f4858">PK FK</text>
<text xml:space="preserve" text-anchor="start" x="163.38" y="-205.75" font-family="Helvetica,Arial,sans-serif" font-weight="bold" font-size="10.00" fill="#1f2933">promo_id</text>
<text xml:space="preserve" text-anchor="start" x="222.38" y="-206" font-family="Helvetica,Arial,sans-serif" font-size="10.00" fill="#5b6770">number(6)</text>
<text xml:space="preserve" text-anchor="start" x="273.88" y="-205.95" font-family="Helvetica,Arial,sans-serif" font-weight="bold" font-size="9.00" fill="#2f4858">PK FK</text>
</g>
<!-- SALES&#45;&gt;FWEEK_PSCAT_SALES_MV -->
<g id="edge2" class="edge">
<title>SALES&#45;&gt;FWEEK_PSCAT_SALES_MV</title>
<path fill="none" stroke="#a9b4bf" stroke-dasharray="5,2" d="M236.12,-198.22C236.12,-176.11 236.12,-150.74 236.12,-127.86"/>
<polygon fill="#a9b4bf" stroke="#a9b4bf" points="236.13,-120.11 239.73,-128.11 236.13,-122.89 236.13,-128.11 236.13,-128.11 236.13,-128.11 236.13,-122.89 232.53,-128.11 236.13,-120.11"/>
</g>
<!-- TIMES -->
<g id="node4" class="node">
<title>TIMES</title>
<polygon fill="#ffffff" stroke="none" points="346.12,-236.5 346.12,-278.5 446.12,-278.5 446.12,-236.5 346.12,-236.5"/>
<polygon fill="none" stroke="#b8c2cc" points="346.12,-236.5 346.12,-278.5 446.12,-278.5 446.12,-236.5 346.12,-236.5"/>
<polygon fill="#2f4858" stroke="none" points="347.12,-256.75 347.12,-277.5 445.12,-277.5 445.12,-256.75 347.12,-256.75"/>
<text xml:space="preserve" text-anchor="start" x="377.75" y="-263.1" font-family="Helvetica,Arial,sans-serif" font-weight="bold" font-size="12.00" fill="white">TIMES</text>
<text xml:space="preserve" text-anchor="start" x="351.12" y="-244.25" font-family="Helvetica,Arial,sans-serif" font-weight="bold" font-size="10.00" fill="#1f2933">time_id</text>
<text xml:space="preserve" text-anchor="start" x="393.62" y="-244.5" font-family="Helvetica,Arial,sans-serif" font-size="10.00" fill="#5b6770">date</text>
<text xml:space="preserve" text-anchor="start" x="420.38" y="-244.45" font-family="Helvetica,Arial,sans-serif" font-weight="bold" font-size="9.00" fill="#2f4858">PK</text>
</g>
<!-- TIMES&#45;&gt;FWEEK_PSCAT_SALES_MV -->
<g id="edge3" class="edge">
<title>TIMES&#45;&gt;FWEEK_PSCAT_SALES_MV</title>
<path fill="none" stroke="#a9b4bf" stroke-dasharray="5,2" d="M379.9,-236.63C358.81,-210.79 320.94,-164.4 289.36,-125.71"/>
<polygon fill="#a9b4bf" stroke="#a9b4bf" points="284.31,-119.52 292.15,-123.44 286.07,-121.68 289.37,-125.72 289.37,-125.72 289.37,-125.72 286.07,-121.68 286.58,-128 284.31,-119.52"/>
</g>
</g>
</svg>
